%TF.GenerationSoftware,KiCad,Pcbnew,7.0.2-6a45011f42~172~ubuntu20.04.1*%
%TF.CreationDate,2023-04-23T14:48:57-04:00*%
%TF.ProjectId,RPiHeaderAdapter,52506948-6561-4646-9572-416461707465,rev?*%
%TF.SameCoordinates,Original*%
%TF.FileFunction,Soldermask,Bot*%
%TF.FilePolarity,Negative*%
%FSLAX46Y46*%
G04 Gerber Fmt 4.6, Leading zero omitted, Abs format (unit mm)*
G04 Created by KiCad (PCBNEW 7.0.2-6a45011f42~172~ubuntu20.04.1) date 2023-04-23 14:48:57*
%MOMM*%
%LPD*%
G01*
G04 APERTURE LIST*
%ADD10C,0.150000*%
%ADD11R,1.700000X1.700000*%
%ADD12O,1.700000X1.700000*%
G04 APERTURE END LIST*
D10*
X125839400Y-91220847D02*
X125887019Y-91125609D01*
X125887019Y-91125609D02*
X125887019Y-90935133D01*
X125887019Y-90935133D02*
X125839400Y-90839895D01*
X125839400Y-90839895D02*
X125744161Y-90792276D01*
X125744161Y-90792276D02*
X125363209Y-90792276D01*
X125363209Y-90792276D02*
X125267971Y-90839895D01*
X125267971Y-90839895D02*
X125220352Y-90935133D01*
X125220352Y-90935133D02*
X125220352Y-91125609D01*
X125220352Y-91125609D02*
X125267971Y-91220847D01*
X125267971Y-91220847D02*
X125363209Y-91268466D01*
X125363209Y-91268466D02*
X125458447Y-91268466D01*
X125458447Y-91268466D02*
X125553685Y-90792276D01*
X125887019Y-91697038D02*
X124887019Y-91697038D01*
X124887019Y-91697038D02*
X124887019Y-91935133D01*
X124887019Y-91935133D02*
X124934638Y-92077990D01*
X124934638Y-92077990D02*
X125029876Y-92173228D01*
X125029876Y-92173228D02*
X125125114Y-92220847D01*
X125125114Y-92220847D02*
X125315590Y-92268466D01*
X125315590Y-92268466D02*
X125458447Y-92268466D01*
X125458447Y-92268466D02*
X125648923Y-92220847D01*
X125648923Y-92220847D02*
X125744161Y-92173228D01*
X125744161Y-92173228D02*
X125839400Y-92077990D01*
X125839400Y-92077990D02*
X125887019Y-91935133D01*
X125887019Y-91935133D02*
X125887019Y-91697038D01*
X125887019Y-92697038D02*
X125220352Y-92697038D01*
X124887019Y-92697038D02*
X124934638Y-92649419D01*
X124934638Y-92649419D02*
X124982257Y-92697038D01*
X124982257Y-92697038D02*
X124934638Y-92744657D01*
X124934638Y-92744657D02*
X124887019Y-92697038D01*
X124887019Y-92697038D02*
X124982257Y-92697038D01*
X125839400Y-93125609D02*
X125887019Y-93220847D01*
X125887019Y-93220847D02*
X125887019Y-93411323D01*
X125887019Y-93411323D02*
X125839400Y-93506561D01*
X125839400Y-93506561D02*
X125744161Y-93554180D01*
X125744161Y-93554180D02*
X125696542Y-93554180D01*
X125696542Y-93554180D02*
X125601304Y-93506561D01*
X125601304Y-93506561D02*
X125553685Y-93411323D01*
X125553685Y-93411323D02*
X125553685Y-93268466D01*
X125553685Y-93268466D02*
X125506066Y-93173228D01*
X125506066Y-93173228D02*
X125410828Y-93125609D01*
X125410828Y-93125609D02*
X125363209Y-93125609D01*
X125363209Y-93125609D02*
X125267971Y-93173228D01*
X125267971Y-93173228D02*
X125220352Y-93268466D01*
X125220352Y-93268466D02*
X125220352Y-93411323D01*
X125220352Y-93411323D02*
X125267971Y-93506561D01*
X125220352Y-93982752D02*
X126220352Y-93982752D01*
X125267971Y-93982752D02*
X125220352Y-94077990D01*
X125220352Y-94077990D02*
X125220352Y-94268466D01*
X125220352Y-94268466D02*
X125267971Y-94363704D01*
X125267971Y-94363704D02*
X125315590Y-94411323D01*
X125315590Y-94411323D02*
X125410828Y-94458942D01*
X125410828Y-94458942D02*
X125696542Y-94458942D01*
X125696542Y-94458942D02*
X125791780Y-94411323D01*
X125791780Y-94411323D02*
X125839400Y-94363704D01*
X125839400Y-94363704D02*
X125887019Y-94268466D01*
X125887019Y-94268466D02*
X125887019Y-94077990D01*
X125887019Y-94077990D02*
X125839400Y-93982752D01*
X125887019Y-95030371D02*
X125839400Y-94935133D01*
X125839400Y-94935133D02*
X125744161Y-94887514D01*
X125744161Y-94887514D02*
X124887019Y-94887514D01*
X125887019Y-95839895D02*
X125363209Y-95839895D01*
X125363209Y-95839895D02*
X125267971Y-95792276D01*
X125267971Y-95792276D02*
X125220352Y-95697038D01*
X125220352Y-95697038D02*
X125220352Y-95506562D01*
X125220352Y-95506562D02*
X125267971Y-95411324D01*
X125839400Y-95839895D02*
X125887019Y-95744657D01*
X125887019Y-95744657D02*
X125887019Y-95506562D01*
X125887019Y-95506562D02*
X125839400Y-95411324D01*
X125839400Y-95411324D02*
X125744161Y-95363705D01*
X125744161Y-95363705D02*
X125648923Y-95363705D01*
X125648923Y-95363705D02*
X125553685Y-95411324D01*
X125553685Y-95411324D02*
X125506066Y-95506562D01*
X125506066Y-95506562D02*
X125506066Y-95744657D01*
X125506066Y-95744657D02*
X125458447Y-95839895D01*
X125220352Y-96220848D02*
X125887019Y-96458943D01*
X125220352Y-96697038D02*
X125887019Y-96458943D01*
X125887019Y-96458943D02*
X126125114Y-96363705D01*
X126125114Y-96363705D02*
X126172733Y-96316086D01*
X126172733Y-96316086D02*
X126220352Y-96220848D01*
X125887019Y-98411324D02*
X125410828Y-98077991D01*
X125887019Y-97839896D02*
X124887019Y-97839896D01*
X124887019Y-97839896D02*
X124887019Y-98220848D01*
X124887019Y-98220848D02*
X124934638Y-98316086D01*
X124934638Y-98316086D02*
X124982257Y-98363705D01*
X124982257Y-98363705D02*
X125077495Y-98411324D01*
X125077495Y-98411324D02*
X125220352Y-98411324D01*
X125220352Y-98411324D02*
X125315590Y-98363705D01*
X125315590Y-98363705D02*
X125363209Y-98316086D01*
X125363209Y-98316086D02*
X125410828Y-98220848D01*
X125410828Y-98220848D02*
X125410828Y-97839896D01*
X125887019Y-98839896D02*
X124887019Y-98839896D01*
X124887019Y-98839896D02*
X124887019Y-99220848D01*
X124887019Y-99220848D02*
X124934638Y-99316086D01*
X124934638Y-99316086D02*
X124982257Y-99363705D01*
X124982257Y-99363705D02*
X125077495Y-99411324D01*
X125077495Y-99411324D02*
X125220352Y-99411324D01*
X125220352Y-99411324D02*
X125315590Y-99363705D01*
X125315590Y-99363705D02*
X125363209Y-99316086D01*
X125363209Y-99316086D02*
X125410828Y-99220848D01*
X125410828Y-99220848D02*
X125410828Y-98839896D01*
X125887019Y-99839896D02*
X125220352Y-99839896D01*
X124887019Y-99839896D02*
X124934638Y-99792277D01*
X124934638Y-99792277D02*
X124982257Y-99839896D01*
X124982257Y-99839896D02*
X124934638Y-99887515D01*
X124934638Y-99887515D02*
X124887019Y-99839896D01*
X124887019Y-99839896D02*
X124982257Y-99839896D01*
X125601304Y-101030372D02*
X125601304Y-101506562D01*
X125887019Y-100935134D02*
X124887019Y-101268467D01*
X124887019Y-101268467D02*
X125887019Y-101601800D01*
X125887019Y-102363705D02*
X124887019Y-102363705D01*
X125839400Y-102363705D02*
X125887019Y-102268467D01*
X125887019Y-102268467D02*
X125887019Y-102077991D01*
X125887019Y-102077991D02*
X125839400Y-101982753D01*
X125839400Y-101982753D02*
X125791780Y-101935134D01*
X125791780Y-101935134D02*
X125696542Y-101887515D01*
X125696542Y-101887515D02*
X125410828Y-101887515D01*
X125410828Y-101887515D02*
X125315590Y-101935134D01*
X125315590Y-101935134D02*
X125267971Y-101982753D01*
X125267971Y-101982753D02*
X125220352Y-102077991D01*
X125220352Y-102077991D02*
X125220352Y-102268467D01*
X125220352Y-102268467D02*
X125267971Y-102363705D01*
X125887019Y-103268467D02*
X125363209Y-103268467D01*
X125363209Y-103268467D02*
X125267971Y-103220848D01*
X125267971Y-103220848D02*
X125220352Y-103125610D01*
X125220352Y-103125610D02*
X125220352Y-102935134D01*
X125220352Y-102935134D02*
X125267971Y-102839896D01*
X125839400Y-103268467D02*
X125887019Y-103173229D01*
X125887019Y-103173229D02*
X125887019Y-102935134D01*
X125887019Y-102935134D02*
X125839400Y-102839896D01*
X125839400Y-102839896D02*
X125744161Y-102792277D01*
X125744161Y-102792277D02*
X125648923Y-102792277D01*
X125648923Y-102792277D02*
X125553685Y-102839896D01*
X125553685Y-102839896D02*
X125506066Y-102935134D01*
X125506066Y-102935134D02*
X125506066Y-103173229D01*
X125506066Y-103173229D02*
X125458447Y-103268467D01*
X125220352Y-103744658D02*
X126220352Y-103744658D01*
X125267971Y-103744658D02*
X125220352Y-103839896D01*
X125220352Y-103839896D02*
X125220352Y-104030372D01*
X125220352Y-104030372D02*
X125267971Y-104125610D01*
X125267971Y-104125610D02*
X125315590Y-104173229D01*
X125315590Y-104173229D02*
X125410828Y-104220848D01*
X125410828Y-104220848D02*
X125696542Y-104220848D01*
X125696542Y-104220848D02*
X125791780Y-104173229D01*
X125791780Y-104173229D02*
X125839400Y-104125610D01*
X125839400Y-104125610D02*
X125887019Y-104030372D01*
X125887019Y-104030372D02*
X125887019Y-103839896D01*
X125887019Y-103839896D02*
X125839400Y-103744658D01*
X125220352Y-104506563D02*
X125220352Y-104887515D01*
X124887019Y-104649420D02*
X125744161Y-104649420D01*
X125744161Y-104649420D02*
X125839400Y-104697039D01*
X125839400Y-104697039D02*
X125887019Y-104792277D01*
X125887019Y-104792277D02*
X125887019Y-104887515D01*
X125839400Y-105601801D02*
X125887019Y-105506563D01*
X125887019Y-105506563D02*
X125887019Y-105316087D01*
X125887019Y-105316087D02*
X125839400Y-105220849D01*
X125839400Y-105220849D02*
X125744161Y-105173230D01*
X125744161Y-105173230D02*
X125363209Y-105173230D01*
X125363209Y-105173230D02*
X125267971Y-105220849D01*
X125267971Y-105220849D02*
X125220352Y-105316087D01*
X125220352Y-105316087D02*
X125220352Y-105506563D01*
X125220352Y-105506563D02*
X125267971Y-105601801D01*
X125267971Y-105601801D02*
X125363209Y-105649420D01*
X125363209Y-105649420D02*
X125458447Y-105649420D01*
X125458447Y-105649420D02*
X125553685Y-105173230D01*
X125887019Y-106077992D02*
X125220352Y-106077992D01*
X125410828Y-106077992D02*
X125315590Y-106125611D01*
X125315590Y-106125611D02*
X125267971Y-106173230D01*
X125267971Y-106173230D02*
X125220352Y-106268468D01*
X125220352Y-106268468D02*
X125220352Y-106363706D01*
X125220352Y-107363707D02*
X125887019Y-107601802D01*
X125887019Y-107601802D02*
X125220352Y-107839897D01*
X125887019Y-108744659D02*
X125887019Y-108173231D01*
X125887019Y-108458945D02*
X124887019Y-108458945D01*
X124887019Y-108458945D02*
X125029876Y-108363707D01*
X125029876Y-108363707D02*
X125125114Y-108268469D01*
X125125114Y-108268469D02*
X125172733Y-108173231D01*
X125791780Y-109173231D02*
X125839400Y-109220850D01*
X125839400Y-109220850D02*
X125887019Y-109173231D01*
X125887019Y-109173231D02*
X125839400Y-109125612D01*
X125839400Y-109125612D02*
X125791780Y-109173231D01*
X125791780Y-109173231D02*
X125887019Y-109173231D01*
X124887019Y-109839897D02*
X124887019Y-109935135D01*
X124887019Y-109935135D02*
X124934638Y-110030373D01*
X124934638Y-110030373D02*
X124982257Y-110077992D01*
X124982257Y-110077992D02*
X125077495Y-110125611D01*
X125077495Y-110125611D02*
X125267971Y-110173230D01*
X125267971Y-110173230D02*
X125506066Y-110173230D01*
X125506066Y-110173230D02*
X125696542Y-110125611D01*
X125696542Y-110125611D02*
X125791780Y-110077992D01*
X125791780Y-110077992D02*
X125839400Y-110030373D01*
X125839400Y-110030373D02*
X125887019Y-109935135D01*
X125887019Y-109935135D02*
X125887019Y-109839897D01*
X125887019Y-109839897D02*
X125839400Y-109744659D01*
X125839400Y-109744659D02*
X125791780Y-109697040D01*
X125791780Y-109697040D02*
X125696542Y-109649421D01*
X125696542Y-109649421D02*
X125506066Y-109601802D01*
X125506066Y-109601802D02*
X125267971Y-109601802D01*
X125267971Y-109601802D02*
X125077495Y-109649421D01*
X125077495Y-109649421D02*
X124982257Y-109697040D01*
X124982257Y-109697040D02*
X124934638Y-109744659D01*
X124934638Y-109744659D02*
X124887019Y-109839897D01*
D11*
X134874000Y-75935600D03*
D12*
X134874000Y-78475600D03*
D11*
X134797800Y-98871800D03*
D12*
X134797800Y-101411800D03*
X134797800Y-103951800D03*
D11*
X134797800Y-83845000D03*
D12*
X134797800Y-86385000D03*
X134797800Y-88925000D03*
X134797800Y-91465000D03*
D11*
X130124200Y-63881000D03*
D12*
X130124200Y-61341000D03*
X130124200Y-58801000D03*
D11*
X134797800Y-66532600D03*
D12*
X134797800Y-69072600D03*
D11*
X143738600Y-58648600D03*
D12*
X146278600Y-58648600D03*
X143738600Y-61188600D03*
X146278600Y-61188600D03*
X143738600Y-63728600D03*
X146278600Y-63728600D03*
X143738600Y-66268600D03*
X146278600Y-66268600D03*
X143738600Y-68808600D03*
X146278600Y-68808600D03*
X143738600Y-71348600D03*
X146278600Y-71348600D03*
X143738600Y-73888600D03*
X146278600Y-73888600D03*
X143738600Y-76428600D03*
X146278600Y-76428600D03*
X143738600Y-78968600D03*
X146278600Y-78968600D03*
X143738600Y-81508600D03*
X146278600Y-81508600D03*
X143738600Y-84048600D03*
X146278600Y-84048600D03*
X143738600Y-86588600D03*
X146278600Y-86588600D03*
X143738600Y-89128600D03*
X146278600Y-89128600D03*
X143738600Y-91668600D03*
X146278600Y-91668600D03*
X143738600Y-94208600D03*
X146278600Y-94208600D03*
X143738600Y-96748600D03*
X146278600Y-96748600D03*
X143738600Y-99288600D03*
X146278600Y-99288600D03*
X143738600Y-101828600D03*
X146278600Y-101828600D03*
X143738600Y-104368600D03*
X146278600Y-104368600D03*
X143738600Y-106908600D03*
X146278600Y-106908600D03*
M02*
