%TF.GenerationSoftware,KiCad,Pcbnew,7.0.2-6a45011f42~172~ubuntu20.04.1*%
%TF.CreationDate,2023-04-23T14:48:57-04:00*%
%TF.ProjectId,RPiHeaderAdapter,52506948-6561-4646-9572-416461707465,rev?*%
%TF.SameCoordinates,Original*%
%TF.FileFunction,Legend,Bot*%
%TF.FilePolarity,Positive*%
%FSLAX46Y46*%
G04 Gerber Fmt 4.6, Leading zero omitted, Abs format (unit mm)*
G04 Created by KiCad (PCBNEW 7.0.2-6a45011f42~172~ubuntu20.04.1) date 2023-04-23 14:48:57*
%MOMM*%
%LPD*%
G01*
G04 APERTURE LIST*
%ADD10C,0.150000*%
%ADD11R,1.700000X1.700000*%
%ADD12O,1.700000X1.700000*%
G04 APERTURE END LIST*
D10*
X140643076Y-104449419D02*
X140976409Y-103973228D01*
X141214504Y-104449419D02*
X141214504Y-103449419D01*
X141214504Y-103449419D02*
X140833552Y-103449419D01*
X140833552Y-103449419D02*
X140738314Y-103497038D01*
X140738314Y-103497038D02*
X140690695Y-103544657D01*
X140690695Y-103544657D02*
X140643076Y-103639895D01*
X140643076Y-103639895D02*
X140643076Y-103782752D01*
X140643076Y-103782752D02*
X140690695Y-103877990D01*
X140690695Y-103877990D02*
X140738314Y-103925609D01*
X140738314Y-103925609D02*
X140833552Y-103973228D01*
X140833552Y-103973228D02*
X141214504Y-103973228D01*
X140214504Y-103925609D02*
X139881171Y-103925609D01*
X139738314Y-104449419D02*
X140214504Y-104449419D01*
X140214504Y-104449419D02*
X140214504Y-103449419D01*
X140214504Y-103449419D02*
X139738314Y-103449419D01*
X139357361Y-104401800D02*
X139214504Y-104449419D01*
X139214504Y-104449419D02*
X138976409Y-104449419D01*
X138976409Y-104449419D02*
X138881171Y-104401800D01*
X138881171Y-104401800D02*
X138833552Y-104354180D01*
X138833552Y-104354180D02*
X138785933Y-104258942D01*
X138785933Y-104258942D02*
X138785933Y-104163704D01*
X138785933Y-104163704D02*
X138833552Y-104068466D01*
X138833552Y-104068466D02*
X138881171Y-104020847D01*
X138881171Y-104020847D02*
X138976409Y-103973228D01*
X138976409Y-103973228D02*
X139166885Y-103925609D01*
X139166885Y-103925609D02*
X139262123Y-103877990D01*
X139262123Y-103877990D02*
X139309742Y-103830371D01*
X139309742Y-103830371D02*
X139357361Y-103735133D01*
X139357361Y-103735133D02*
X139357361Y-103639895D01*
X139357361Y-103639895D02*
X139309742Y-103544657D01*
X139309742Y-103544657D02*
X139262123Y-103497038D01*
X139262123Y-103497038D02*
X139166885Y-103449419D01*
X139166885Y-103449419D02*
X138928790Y-103449419D01*
X138928790Y-103449419D02*
X138785933Y-103497038D01*
X138357361Y-103925609D02*
X138024028Y-103925609D01*
X137881171Y-104449419D02*
X138357361Y-104449419D01*
X138357361Y-104449419D02*
X138357361Y-103449419D01*
X138357361Y-103449419D02*
X137881171Y-103449419D01*
X137595456Y-103449419D02*
X137024028Y-103449419D01*
X137309742Y-104449419D02*
X137309742Y-103449419D01*
X138750704Y-101985619D02*
X138750704Y-100985619D01*
X138750704Y-100985619D02*
X138512609Y-100985619D01*
X138512609Y-100985619D02*
X138369752Y-101033238D01*
X138369752Y-101033238D02*
X138274514Y-101128476D01*
X138274514Y-101128476D02*
X138226895Y-101223714D01*
X138226895Y-101223714D02*
X138179276Y-101414190D01*
X138179276Y-101414190D02*
X138179276Y-101557047D01*
X138179276Y-101557047D02*
X138226895Y-101747523D01*
X138226895Y-101747523D02*
X138274514Y-101842761D01*
X138274514Y-101842761D02*
X138369752Y-101938000D01*
X138369752Y-101938000D02*
X138512609Y-101985619D01*
X138512609Y-101985619D02*
X138750704Y-101985619D01*
X137179276Y-101890380D02*
X137226895Y-101938000D01*
X137226895Y-101938000D02*
X137369752Y-101985619D01*
X137369752Y-101985619D02*
X137464990Y-101985619D01*
X137464990Y-101985619D02*
X137607847Y-101938000D01*
X137607847Y-101938000D02*
X137703085Y-101842761D01*
X137703085Y-101842761D02*
X137750704Y-101747523D01*
X137750704Y-101747523D02*
X137798323Y-101557047D01*
X137798323Y-101557047D02*
X137798323Y-101414190D01*
X137798323Y-101414190D02*
X137750704Y-101223714D01*
X137750704Y-101223714D02*
X137703085Y-101128476D01*
X137703085Y-101128476D02*
X137607847Y-101033238D01*
X137607847Y-101033238D02*
X137464990Y-100985619D01*
X137464990Y-100985619D02*
X137369752Y-100985619D01*
X137369752Y-100985619D02*
X137226895Y-101033238D01*
X137226895Y-101033238D02*
X137179276Y-101080857D01*
X140271571Y-98820209D02*
X140128714Y-98867828D01*
X140128714Y-98867828D02*
X140081095Y-98915447D01*
X140081095Y-98915447D02*
X140033476Y-99010685D01*
X140033476Y-99010685D02*
X140033476Y-99153542D01*
X140033476Y-99153542D02*
X140081095Y-99248780D01*
X140081095Y-99248780D02*
X140128714Y-99296400D01*
X140128714Y-99296400D02*
X140223952Y-99344019D01*
X140223952Y-99344019D02*
X140604904Y-99344019D01*
X140604904Y-99344019D02*
X140604904Y-98344019D01*
X140604904Y-98344019D02*
X140271571Y-98344019D01*
X140271571Y-98344019D02*
X140176333Y-98391638D01*
X140176333Y-98391638D02*
X140128714Y-98439257D01*
X140128714Y-98439257D02*
X140081095Y-98534495D01*
X140081095Y-98534495D02*
X140081095Y-98629733D01*
X140081095Y-98629733D02*
X140128714Y-98724971D01*
X140128714Y-98724971D02*
X140176333Y-98772590D01*
X140176333Y-98772590D02*
X140271571Y-98820209D01*
X140271571Y-98820209D02*
X140604904Y-98820209D01*
X139604904Y-98344019D02*
X139604904Y-99153542D01*
X139604904Y-99153542D02*
X139557285Y-99248780D01*
X139557285Y-99248780D02*
X139509666Y-99296400D01*
X139509666Y-99296400D02*
X139414428Y-99344019D01*
X139414428Y-99344019D02*
X139223952Y-99344019D01*
X139223952Y-99344019D02*
X139128714Y-99296400D01*
X139128714Y-99296400D02*
X139081095Y-99248780D01*
X139081095Y-99248780D02*
X139033476Y-99153542D01*
X139033476Y-99153542D02*
X139033476Y-98344019D01*
X138604904Y-99296400D02*
X138462047Y-99344019D01*
X138462047Y-99344019D02*
X138223952Y-99344019D01*
X138223952Y-99344019D02*
X138128714Y-99296400D01*
X138128714Y-99296400D02*
X138081095Y-99248780D01*
X138081095Y-99248780D02*
X138033476Y-99153542D01*
X138033476Y-99153542D02*
X138033476Y-99058304D01*
X138033476Y-99058304D02*
X138081095Y-98963066D01*
X138081095Y-98963066D02*
X138128714Y-98915447D01*
X138128714Y-98915447D02*
X138223952Y-98867828D01*
X138223952Y-98867828D02*
X138414428Y-98820209D01*
X138414428Y-98820209D02*
X138509666Y-98772590D01*
X138509666Y-98772590D02*
X138557285Y-98724971D01*
X138557285Y-98724971D02*
X138604904Y-98629733D01*
X138604904Y-98629733D02*
X138604904Y-98534495D01*
X138604904Y-98534495D02*
X138557285Y-98439257D01*
X138557285Y-98439257D02*
X138509666Y-98391638D01*
X138509666Y-98391638D02*
X138414428Y-98344019D01*
X138414428Y-98344019D02*
X138176333Y-98344019D01*
X138176333Y-98344019D02*
X138033476Y-98391638D01*
X137414428Y-98867828D02*
X137414428Y-99344019D01*
X137747761Y-98344019D02*
X137414428Y-98867828D01*
X137414428Y-98867828D02*
X137081095Y-98344019D01*
X131440380Y-104206704D02*
X132440380Y-104206704D01*
X132440380Y-104206704D02*
X132440380Y-103968609D01*
X132440380Y-103968609D02*
X132392761Y-103825752D01*
X132392761Y-103825752D02*
X132297523Y-103730514D01*
X132297523Y-103730514D02*
X132202285Y-103682895D01*
X132202285Y-103682895D02*
X132011809Y-103635276D01*
X132011809Y-103635276D02*
X131868952Y-103635276D01*
X131868952Y-103635276D02*
X131678476Y-103682895D01*
X131678476Y-103682895D02*
X131583238Y-103730514D01*
X131583238Y-103730514D02*
X131488000Y-103825752D01*
X131488000Y-103825752D02*
X131440380Y-103968609D01*
X131440380Y-103968609D02*
X131440380Y-104206704D01*
X131440380Y-103206704D02*
X132440380Y-103206704D01*
X131488000Y-102778133D02*
X131440380Y-102635276D01*
X131440380Y-102635276D02*
X131440380Y-102397181D01*
X131440380Y-102397181D02*
X131488000Y-102301943D01*
X131488000Y-102301943D02*
X131535619Y-102254324D01*
X131535619Y-102254324D02*
X131630857Y-102206705D01*
X131630857Y-102206705D02*
X131726095Y-102206705D01*
X131726095Y-102206705D02*
X131821333Y-102254324D01*
X131821333Y-102254324D02*
X131868952Y-102301943D01*
X131868952Y-102301943D02*
X131916571Y-102397181D01*
X131916571Y-102397181D02*
X131964190Y-102587657D01*
X131964190Y-102587657D02*
X132011809Y-102682895D01*
X132011809Y-102682895D02*
X132059428Y-102730514D01*
X132059428Y-102730514D02*
X132154666Y-102778133D01*
X132154666Y-102778133D02*
X132249904Y-102778133D01*
X132249904Y-102778133D02*
X132345142Y-102730514D01*
X132345142Y-102730514D02*
X132392761Y-102682895D01*
X132392761Y-102682895D02*
X132440380Y-102587657D01*
X132440380Y-102587657D02*
X132440380Y-102349562D01*
X132440380Y-102349562D02*
X132392761Y-102206705D01*
X131440380Y-101778133D02*
X132440380Y-101778133D01*
X132440380Y-101778133D02*
X132440380Y-101397181D01*
X132440380Y-101397181D02*
X132392761Y-101301943D01*
X132392761Y-101301943D02*
X132345142Y-101254324D01*
X132345142Y-101254324D02*
X132249904Y-101206705D01*
X132249904Y-101206705D02*
X132107047Y-101206705D01*
X132107047Y-101206705D02*
X132011809Y-101254324D01*
X132011809Y-101254324D02*
X131964190Y-101301943D01*
X131964190Y-101301943D02*
X131916571Y-101397181D01*
X131916571Y-101397181D02*
X131916571Y-101778133D01*
X131440380Y-100301943D02*
X131440380Y-100778133D01*
X131440380Y-100778133D02*
X132440380Y-100778133D01*
X131726095Y-100016228D02*
X131726095Y-99540038D01*
X131440380Y-100111466D02*
X132440380Y-99778133D01*
X132440380Y-99778133D02*
X131440380Y-99444800D01*
X131916571Y-98920990D02*
X131440380Y-98920990D01*
X132440380Y-99254323D02*
X131916571Y-98920990D01*
X131916571Y-98920990D02*
X132440380Y-98587657D01*
X139687323Y-91879600D02*
X139544466Y-91927219D01*
X139544466Y-91927219D02*
X139306371Y-91927219D01*
X139306371Y-91927219D02*
X139211133Y-91879600D01*
X139211133Y-91879600D02*
X139163514Y-91831980D01*
X139163514Y-91831980D02*
X139115895Y-91736742D01*
X139115895Y-91736742D02*
X139115895Y-91641504D01*
X139115895Y-91641504D02*
X139163514Y-91546266D01*
X139163514Y-91546266D02*
X139211133Y-91498647D01*
X139211133Y-91498647D02*
X139306371Y-91451028D01*
X139306371Y-91451028D02*
X139496847Y-91403409D01*
X139496847Y-91403409D02*
X139592085Y-91355790D01*
X139592085Y-91355790D02*
X139639704Y-91308171D01*
X139639704Y-91308171D02*
X139687323Y-91212933D01*
X139687323Y-91212933D02*
X139687323Y-91117695D01*
X139687323Y-91117695D02*
X139639704Y-91022457D01*
X139639704Y-91022457D02*
X139592085Y-90974838D01*
X139592085Y-90974838D02*
X139496847Y-90927219D01*
X139496847Y-90927219D02*
X139258752Y-90927219D01*
X139258752Y-90927219D02*
X139115895Y-90974838D01*
X138115895Y-91831980D02*
X138163514Y-91879600D01*
X138163514Y-91879600D02*
X138306371Y-91927219D01*
X138306371Y-91927219D02*
X138401609Y-91927219D01*
X138401609Y-91927219D02*
X138544466Y-91879600D01*
X138544466Y-91879600D02*
X138639704Y-91784361D01*
X138639704Y-91784361D02*
X138687323Y-91689123D01*
X138687323Y-91689123D02*
X138734942Y-91498647D01*
X138734942Y-91498647D02*
X138734942Y-91355790D01*
X138734942Y-91355790D02*
X138687323Y-91165314D01*
X138687323Y-91165314D02*
X138639704Y-91070076D01*
X138639704Y-91070076D02*
X138544466Y-90974838D01*
X138544466Y-90974838D02*
X138401609Y-90927219D01*
X138401609Y-90927219D02*
X138306371Y-90927219D01*
X138306371Y-90927219D02*
X138163514Y-90974838D01*
X138163514Y-90974838D02*
X138115895Y-91022457D01*
X137687323Y-91927219D02*
X137687323Y-90927219D01*
X137115895Y-91927219D02*
X137544466Y-91355790D01*
X137115895Y-90927219D02*
X137687323Y-91498647D01*
X140325504Y-89514219D02*
X140325504Y-88514219D01*
X140325504Y-88514219D02*
X139992171Y-89228504D01*
X139992171Y-89228504D02*
X139658838Y-88514219D01*
X139658838Y-88514219D02*
X139658838Y-89514219D01*
X139182647Y-89514219D02*
X139182647Y-88514219D01*
X138754076Y-89466600D02*
X138611219Y-89514219D01*
X138611219Y-89514219D02*
X138373124Y-89514219D01*
X138373124Y-89514219D02*
X138277886Y-89466600D01*
X138277886Y-89466600D02*
X138230267Y-89418980D01*
X138230267Y-89418980D02*
X138182648Y-89323742D01*
X138182648Y-89323742D02*
X138182648Y-89228504D01*
X138182648Y-89228504D02*
X138230267Y-89133266D01*
X138230267Y-89133266D02*
X138277886Y-89085647D01*
X138277886Y-89085647D02*
X138373124Y-89038028D01*
X138373124Y-89038028D02*
X138563600Y-88990409D01*
X138563600Y-88990409D02*
X138658838Y-88942790D01*
X138658838Y-88942790D02*
X138706457Y-88895171D01*
X138706457Y-88895171D02*
X138754076Y-88799933D01*
X138754076Y-88799933D02*
X138754076Y-88704695D01*
X138754076Y-88704695D02*
X138706457Y-88609457D01*
X138706457Y-88609457D02*
X138658838Y-88561838D01*
X138658838Y-88561838D02*
X138563600Y-88514219D01*
X138563600Y-88514219D02*
X138325505Y-88514219D01*
X138325505Y-88514219D02*
X138182648Y-88561838D01*
X137563600Y-88514219D02*
X137373124Y-88514219D01*
X137373124Y-88514219D02*
X137277886Y-88561838D01*
X137277886Y-88561838D02*
X137182648Y-88657076D01*
X137182648Y-88657076D02*
X137135029Y-88847552D01*
X137135029Y-88847552D02*
X137135029Y-89180885D01*
X137135029Y-89180885D02*
X137182648Y-89371361D01*
X137182648Y-89371361D02*
X137277886Y-89466600D01*
X137277886Y-89466600D02*
X137373124Y-89514219D01*
X137373124Y-89514219D02*
X137563600Y-89514219D01*
X137563600Y-89514219D02*
X137658838Y-89466600D01*
X137658838Y-89466600D02*
X137754076Y-89371361D01*
X137754076Y-89371361D02*
X137801695Y-89180885D01*
X137801695Y-89180885D02*
X137801695Y-88847552D01*
X137801695Y-88847552D02*
X137754076Y-88657076D01*
X137754076Y-88657076D02*
X137658838Y-88561838D01*
X137658838Y-88561838D02*
X137563600Y-88514219D01*
X140325504Y-86898019D02*
X140325504Y-85898019D01*
X140325504Y-85898019D02*
X139992171Y-86612304D01*
X139992171Y-86612304D02*
X139658838Y-85898019D01*
X139658838Y-85898019D02*
X139658838Y-86898019D01*
X138992171Y-85898019D02*
X138801695Y-85898019D01*
X138801695Y-85898019D02*
X138706457Y-85945638D01*
X138706457Y-85945638D02*
X138611219Y-86040876D01*
X138611219Y-86040876D02*
X138563600Y-86231352D01*
X138563600Y-86231352D02*
X138563600Y-86564685D01*
X138563600Y-86564685D02*
X138611219Y-86755161D01*
X138611219Y-86755161D02*
X138706457Y-86850400D01*
X138706457Y-86850400D02*
X138801695Y-86898019D01*
X138801695Y-86898019D02*
X138992171Y-86898019D01*
X138992171Y-86898019D02*
X139087409Y-86850400D01*
X139087409Y-86850400D02*
X139182647Y-86755161D01*
X139182647Y-86755161D02*
X139230266Y-86564685D01*
X139230266Y-86564685D02*
X139230266Y-86231352D01*
X139230266Y-86231352D02*
X139182647Y-86040876D01*
X139182647Y-86040876D02*
X139087409Y-85945638D01*
X139087409Y-85945638D02*
X138992171Y-85898019D01*
X138182647Y-86850400D02*
X138039790Y-86898019D01*
X138039790Y-86898019D02*
X137801695Y-86898019D01*
X137801695Y-86898019D02*
X137706457Y-86850400D01*
X137706457Y-86850400D02*
X137658838Y-86802780D01*
X137658838Y-86802780D02*
X137611219Y-86707542D01*
X137611219Y-86707542D02*
X137611219Y-86612304D01*
X137611219Y-86612304D02*
X137658838Y-86517066D01*
X137658838Y-86517066D02*
X137706457Y-86469447D01*
X137706457Y-86469447D02*
X137801695Y-86421828D01*
X137801695Y-86421828D02*
X137992171Y-86374209D01*
X137992171Y-86374209D02*
X138087409Y-86326590D01*
X138087409Y-86326590D02*
X138135028Y-86278971D01*
X138135028Y-86278971D02*
X138182647Y-86183733D01*
X138182647Y-86183733D02*
X138182647Y-86088495D01*
X138182647Y-86088495D02*
X138135028Y-85993257D01*
X138135028Y-85993257D02*
X138087409Y-85945638D01*
X138087409Y-85945638D02*
X137992171Y-85898019D01*
X137992171Y-85898019D02*
X137754076Y-85898019D01*
X137754076Y-85898019D02*
X137611219Y-85945638D01*
X137182647Y-86898019D02*
X137182647Y-85898019D01*
X138128476Y-84237380D02*
X138176095Y-84285000D01*
X138176095Y-84285000D02*
X138318952Y-84332619D01*
X138318952Y-84332619D02*
X138414190Y-84332619D01*
X138414190Y-84332619D02*
X138557047Y-84285000D01*
X138557047Y-84285000D02*
X138652285Y-84189761D01*
X138652285Y-84189761D02*
X138699904Y-84094523D01*
X138699904Y-84094523D02*
X138747523Y-83904047D01*
X138747523Y-83904047D02*
X138747523Y-83761190D01*
X138747523Y-83761190D02*
X138699904Y-83570714D01*
X138699904Y-83570714D02*
X138652285Y-83475476D01*
X138652285Y-83475476D02*
X138557047Y-83380238D01*
X138557047Y-83380238D02*
X138414190Y-83332619D01*
X138414190Y-83332619D02*
X138318952Y-83332619D01*
X138318952Y-83332619D02*
X138176095Y-83380238D01*
X138176095Y-83380238D02*
X138128476Y-83427857D01*
X137747523Y-84285000D02*
X137604666Y-84332619D01*
X137604666Y-84332619D02*
X137366571Y-84332619D01*
X137366571Y-84332619D02*
X137271333Y-84285000D01*
X137271333Y-84285000D02*
X137223714Y-84237380D01*
X137223714Y-84237380D02*
X137176095Y-84142142D01*
X137176095Y-84142142D02*
X137176095Y-84046904D01*
X137176095Y-84046904D02*
X137223714Y-83951666D01*
X137223714Y-83951666D02*
X137271333Y-83904047D01*
X137271333Y-83904047D02*
X137366571Y-83856428D01*
X137366571Y-83856428D02*
X137557047Y-83808809D01*
X137557047Y-83808809D02*
X137652285Y-83761190D01*
X137652285Y-83761190D02*
X137699904Y-83713571D01*
X137699904Y-83713571D02*
X137747523Y-83618333D01*
X137747523Y-83618333D02*
X137747523Y-83523095D01*
X137747523Y-83523095D02*
X137699904Y-83427857D01*
X137699904Y-83427857D02*
X137652285Y-83380238D01*
X137652285Y-83380238D02*
X137557047Y-83332619D01*
X137557047Y-83332619D02*
X137318952Y-83332619D01*
X137318952Y-83332619D02*
X137176095Y-83380238D01*
X131437200Y-88633323D02*
X131389580Y-88490466D01*
X131389580Y-88490466D02*
X131389580Y-88252371D01*
X131389580Y-88252371D02*
X131437200Y-88157133D01*
X131437200Y-88157133D02*
X131484819Y-88109514D01*
X131484819Y-88109514D02*
X131580057Y-88061895D01*
X131580057Y-88061895D02*
X131675295Y-88061895D01*
X131675295Y-88061895D02*
X131770533Y-88109514D01*
X131770533Y-88109514D02*
X131818152Y-88157133D01*
X131818152Y-88157133D02*
X131865771Y-88252371D01*
X131865771Y-88252371D02*
X131913390Y-88442847D01*
X131913390Y-88442847D02*
X131961009Y-88538085D01*
X131961009Y-88538085D02*
X132008628Y-88585704D01*
X132008628Y-88585704D02*
X132103866Y-88633323D01*
X132103866Y-88633323D02*
X132199104Y-88633323D01*
X132199104Y-88633323D02*
X132294342Y-88585704D01*
X132294342Y-88585704D02*
X132341961Y-88538085D01*
X132341961Y-88538085D02*
X132389580Y-88442847D01*
X132389580Y-88442847D02*
X132389580Y-88204752D01*
X132389580Y-88204752D02*
X132341961Y-88061895D01*
X131389580Y-87633323D02*
X132389580Y-87633323D01*
X132389580Y-87633323D02*
X132389580Y-87252371D01*
X132389580Y-87252371D02*
X132341961Y-87157133D01*
X132341961Y-87157133D02*
X132294342Y-87109514D01*
X132294342Y-87109514D02*
X132199104Y-87061895D01*
X132199104Y-87061895D02*
X132056247Y-87061895D01*
X132056247Y-87061895D02*
X131961009Y-87109514D01*
X131961009Y-87109514D02*
X131913390Y-87157133D01*
X131913390Y-87157133D02*
X131865771Y-87252371D01*
X131865771Y-87252371D02*
X131865771Y-87633323D01*
X131389580Y-86633323D02*
X132389580Y-86633323D01*
X132465780Y-79406761D02*
X132465780Y-78835333D01*
X131465780Y-79121047D02*
X132465780Y-79121047D01*
X132465780Y-78311523D02*
X132465780Y-78121047D01*
X132465780Y-78121047D02*
X132418161Y-78025809D01*
X132418161Y-78025809D02*
X132322923Y-77930571D01*
X132322923Y-77930571D02*
X132132447Y-77882952D01*
X132132447Y-77882952D02*
X131799114Y-77882952D01*
X131799114Y-77882952D02*
X131608638Y-77930571D01*
X131608638Y-77930571D02*
X131513400Y-78025809D01*
X131513400Y-78025809D02*
X131465780Y-78121047D01*
X131465780Y-78121047D02*
X131465780Y-78311523D01*
X131465780Y-78311523D02*
X131513400Y-78406761D01*
X131513400Y-78406761D02*
X131608638Y-78501999D01*
X131608638Y-78501999D02*
X131799114Y-78549618D01*
X131799114Y-78549618D02*
X132132447Y-78549618D01*
X132132447Y-78549618D02*
X132322923Y-78501999D01*
X132322923Y-78501999D02*
X132418161Y-78406761D01*
X132418161Y-78406761D02*
X132465780Y-78311523D01*
X132465780Y-77454380D02*
X131656257Y-77454380D01*
X131656257Y-77454380D02*
X131561019Y-77406761D01*
X131561019Y-77406761D02*
X131513400Y-77359142D01*
X131513400Y-77359142D02*
X131465780Y-77263904D01*
X131465780Y-77263904D02*
X131465780Y-77073428D01*
X131465780Y-77073428D02*
X131513400Y-76978190D01*
X131513400Y-76978190D02*
X131561019Y-76930571D01*
X131561019Y-76930571D02*
X131656257Y-76882952D01*
X131656257Y-76882952D02*
X132465780Y-76882952D01*
X131561019Y-75835333D02*
X131513400Y-75882952D01*
X131513400Y-75882952D02*
X131465780Y-76025809D01*
X131465780Y-76025809D02*
X131465780Y-76121047D01*
X131465780Y-76121047D02*
X131513400Y-76263904D01*
X131513400Y-76263904D02*
X131608638Y-76359142D01*
X131608638Y-76359142D02*
X131703876Y-76406761D01*
X131703876Y-76406761D02*
X131894352Y-76454380D01*
X131894352Y-76454380D02*
X132037209Y-76454380D01*
X132037209Y-76454380D02*
X132227685Y-76406761D01*
X132227685Y-76406761D02*
X132322923Y-76359142D01*
X132322923Y-76359142D02*
X132418161Y-76263904D01*
X132418161Y-76263904D02*
X132465780Y-76121047D01*
X132465780Y-76121047D02*
X132465780Y-76025809D01*
X132465780Y-76025809D02*
X132418161Y-75882952D01*
X132418161Y-75882952D02*
X132370542Y-75835333D01*
X131465780Y-75406761D02*
X132465780Y-75406761D01*
X131989590Y-75406761D02*
X131989590Y-74835333D01*
X131465780Y-74835333D02*
X132465780Y-74835333D01*
X140643076Y-78897019D02*
X140976409Y-78420828D01*
X141214504Y-78897019D02*
X141214504Y-77897019D01*
X141214504Y-77897019D02*
X140833552Y-77897019D01*
X140833552Y-77897019D02*
X140738314Y-77944638D01*
X140738314Y-77944638D02*
X140690695Y-77992257D01*
X140690695Y-77992257D02*
X140643076Y-78087495D01*
X140643076Y-78087495D02*
X140643076Y-78230352D01*
X140643076Y-78230352D02*
X140690695Y-78325590D01*
X140690695Y-78325590D02*
X140738314Y-78373209D01*
X140738314Y-78373209D02*
X140833552Y-78420828D01*
X140833552Y-78420828D02*
X141214504Y-78420828D01*
X140214504Y-78373209D02*
X139881171Y-78373209D01*
X139738314Y-78897019D02*
X140214504Y-78897019D01*
X140214504Y-78897019D02*
X140214504Y-77897019D01*
X140214504Y-77897019D02*
X139738314Y-77897019D01*
X139357361Y-78849400D02*
X139214504Y-78897019D01*
X139214504Y-78897019D02*
X138976409Y-78897019D01*
X138976409Y-78897019D02*
X138881171Y-78849400D01*
X138881171Y-78849400D02*
X138833552Y-78801780D01*
X138833552Y-78801780D02*
X138785933Y-78706542D01*
X138785933Y-78706542D02*
X138785933Y-78611304D01*
X138785933Y-78611304D02*
X138833552Y-78516066D01*
X138833552Y-78516066D02*
X138881171Y-78468447D01*
X138881171Y-78468447D02*
X138976409Y-78420828D01*
X138976409Y-78420828D02*
X139166885Y-78373209D01*
X139166885Y-78373209D02*
X139262123Y-78325590D01*
X139262123Y-78325590D02*
X139309742Y-78277971D01*
X139309742Y-78277971D02*
X139357361Y-78182733D01*
X139357361Y-78182733D02*
X139357361Y-78087495D01*
X139357361Y-78087495D02*
X139309742Y-77992257D01*
X139309742Y-77992257D02*
X139262123Y-77944638D01*
X139262123Y-77944638D02*
X139166885Y-77897019D01*
X139166885Y-77897019D02*
X138928790Y-77897019D01*
X138928790Y-77897019D02*
X138785933Y-77944638D01*
X138357361Y-78373209D02*
X138024028Y-78373209D01*
X137881171Y-78897019D02*
X138357361Y-78897019D01*
X138357361Y-78897019D02*
X138357361Y-77897019D01*
X138357361Y-77897019D02*
X137881171Y-77897019D01*
X137595456Y-77897019D02*
X137024028Y-77897019D01*
X137309742Y-78897019D02*
X137309742Y-77897019D01*
X138928504Y-76407819D02*
X138928504Y-75407819D01*
X138452314Y-76407819D02*
X138452314Y-75407819D01*
X138452314Y-75407819D02*
X137880886Y-76407819D01*
X137880886Y-76407819D02*
X137880886Y-75407819D01*
X137547552Y-75407819D02*
X136976124Y-75407819D01*
X137261838Y-76407819D02*
X137261838Y-75407819D01*
X131364180Y-68748304D02*
X132364180Y-68748304D01*
X132268942Y-68319733D02*
X132316561Y-68272114D01*
X132316561Y-68272114D02*
X132364180Y-68176876D01*
X132364180Y-68176876D02*
X132364180Y-67938781D01*
X132364180Y-67938781D02*
X132316561Y-67843543D01*
X132316561Y-67843543D02*
X132268942Y-67795924D01*
X132268942Y-67795924D02*
X132173704Y-67748305D01*
X132173704Y-67748305D02*
X132078466Y-67748305D01*
X132078466Y-67748305D02*
X131935609Y-67795924D01*
X131935609Y-67795924D02*
X131364180Y-68367352D01*
X131364180Y-68367352D02*
X131364180Y-67748305D01*
X131459419Y-66748305D02*
X131411800Y-66795924D01*
X131411800Y-66795924D02*
X131364180Y-66938781D01*
X131364180Y-66938781D02*
X131364180Y-67034019D01*
X131364180Y-67034019D02*
X131411800Y-67176876D01*
X131411800Y-67176876D02*
X131507038Y-67272114D01*
X131507038Y-67272114D02*
X131602276Y-67319733D01*
X131602276Y-67319733D02*
X131792752Y-67367352D01*
X131792752Y-67367352D02*
X131935609Y-67367352D01*
X131935609Y-67367352D02*
X132126085Y-67319733D01*
X132126085Y-67319733D02*
X132221323Y-67272114D01*
X132221323Y-67272114D02*
X132316561Y-67176876D01*
X132316561Y-67176876D02*
X132364180Y-67034019D01*
X132364180Y-67034019D02*
X132364180Y-66938781D01*
X132364180Y-66938781D02*
X132316561Y-66795924D01*
X132316561Y-66795924D02*
X132268942Y-66748305D01*
X139382523Y-69451400D02*
X139239666Y-69499019D01*
X139239666Y-69499019D02*
X139001571Y-69499019D01*
X139001571Y-69499019D02*
X138906333Y-69451400D01*
X138906333Y-69451400D02*
X138858714Y-69403780D01*
X138858714Y-69403780D02*
X138811095Y-69308542D01*
X138811095Y-69308542D02*
X138811095Y-69213304D01*
X138811095Y-69213304D02*
X138858714Y-69118066D01*
X138858714Y-69118066D02*
X138906333Y-69070447D01*
X138906333Y-69070447D02*
X139001571Y-69022828D01*
X139001571Y-69022828D02*
X139192047Y-68975209D01*
X139192047Y-68975209D02*
X139287285Y-68927590D01*
X139287285Y-68927590D02*
X139334904Y-68879971D01*
X139334904Y-68879971D02*
X139382523Y-68784733D01*
X139382523Y-68784733D02*
X139382523Y-68689495D01*
X139382523Y-68689495D02*
X139334904Y-68594257D01*
X139334904Y-68594257D02*
X139287285Y-68546638D01*
X139287285Y-68546638D02*
X139192047Y-68499019D01*
X139192047Y-68499019D02*
X138953952Y-68499019D01*
X138953952Y-68499019D02*
X138811095Y-68546638D01*
X137811095Y-69403780D02*
X137858714Y-69451400D01*
X137858714Y-69451400D02*
X138001571Y-69499019D01*
X138001571Y-69499019D02*
X138096809Y-69499019D01*
X138096809Y-69499019D02*
X138239666Y-69451400D01*
X138239666Y-69451400D02*
X138334904Y-69356161D01*
X138334904Y-69356161D02*
X138382523Y-69260923D01*
X138382523Y-69260923D02*
X138430142Y-69070447D01*
X138430142Y-69070447D02*
X138430142Y-68927590D01*
X138430142Y-68927590D02*
X138382523Y-68737114D01*
X138382523Y-68737114D02*
X138334904Y-68641876D01*
X138334904Y-68641876D02*
X138239666Y-68546638D01*
X138239666Y-68546638D02*
X138096809Y-68499019D01*
X138096809Y-68499019D02*
X138001571Y-68499019D01*
X138001571Y-68499019D02*
X137858714Y-68546638D01*
X137858714Y-68546638D02*
X137811095Y-68594257D01*
X136906333Y-69499019D02*
X137382523Y-69499019D01*
X137382523Y-69499019D02*
X137382523Y-68499019D01*
X139382523Y-66962200D02*
X139239666Y-67009819D01*
X139239666Y-67009819D02*
X139001571Y-67009819D01*
X139001571Y-67009819D02*
X138906333Y-66962200D01*
X138906333Y-66962200D02*
X138858714Y-66914580D01*
X138858714Y-66914580D02*
X138811095Y-66819342D01*
X138811095Y-66819342D02*
X138811095Y-66724104D01*
X138811095Y-66724104D02*
X138858714Y-66628866D01*
X138858714Y-66628866D02*
X138906333Y-66581247D01*
X138906333Y-66581247D02*
X139001571Y-66533628D01*
X139001571Y-66533628D02*
X139192047Y-66486009D01*
X139192047Y-66486009D02*
X139287285Y-66438390D01*
X139287285Y-66438390D02*
X139334904Y-66390771D01*
X139334904Y-66390771D02*
X139382523Y-66295533D01*
X139382523Y-66295533D02*
X139382523Y-66200295D01*
X139382523Y-66200295D02*
X139334904Y-66105057D01*
X139334904Y-66105057D02*
X139287285Y-66057438D01*
X139287285Y-66057438D02*
X139192047Y-66009819D01*
X139192047Y-66009819D02*
X138953952Y-66009819D01*
X138953952Y-66009819D02*
X138811095Y-66057438D01*
X138382523Y-67009819D02*
X138382523Y-66009819D01*
X138382523Y-66009819D02*
X138144428Y-66009819D01*
X138144428Y-66009819D02*
X138001571Y-66057438D01*
X138001571Y-66057438D02*
X137906333Y-66152676D01*
X137906333Y-66152676D02*
X137858714Y-66247914D01*
X137858714Y-66247914D02*
X137811095Y-66438390D01*
X137811095Y-66438390D02*
X137811095Y-66581247D01*
X137811095Y-66581247D02*
X137858714Y-66771723D01*
X137858714Y-66771723D02*
X137906333Y-66866961D01*
X137906333Y-66866961D02*
X138001571Y-66962200D01*
X138001571Y-66962200D02*
X138144428Y-67009819D01*
X138144428Y-67009819D02*
X138382523Y-67009819D01*
X137430142Y-66724104D02*
X136953952Y-66724104D01*
X137525380Y-67009819D02*
X137192047Y-66009819D01*
X137192047Y-66009819D02*
X136858714Y-67009819D01*
X127428714Y-58262819D02*
X127904904Y-58262819D01*
X127904904Y-58262819D02*
X127952523Y-58739009D01*
X127952523Y-58739009D02*
X127904904Y-58691390D01*
X127904904Y-58691390D02*
X127809666Y-58643771D01*
X127809666Y-58643771D02*
X127571571Y-58643771D01*
X127571571Y-58643771D02*
X127476333Y-58691390D01*
X127476333Y-58691390D02*
X127428714Y-58739009D01*
X127428714Y-58739009D02*
X127381095Y-58834247D01*
X127381095Y-58834247D02*
X127381095Y-59072342D01*
X127381095Y-59072342D02*
X127428714Y-59167580D01*
X127428714Y-59167580D02*
X127476333Y-59215200D01*
X127476333Y-59215200D02*
X127571571Y-59262819D01*
X127571571Y-59262819D02*
X127809666Y-59262819D01*
X127809666Y-59262819D02*
X127904904Y-59215200D01*
X127904904Y-59215200D02*
X127952523Y-59167580D01*
X127047761Y-58596152D02*
X126809666Y-59262819D01*
X126809666Y-59262819D02*
X126571571Y-58596152D01*
X127457295Y-60875838D02*
X127552533Y-60828219D01*
X127552533Y-60828219D02*
X127695390Y-60828219D01*
X127695390Y-60828219D02*
X127838247Y-60875838D01*
X127838247Y-60875838D02*
X127933485Y-60971076D01*
X127933485Y-60971076D02*
X127981104Y-61066314D01*
X127981104Y-61066314D02*
X128028723Y-61256790D01*
X128028723Y-61256790D02*
X128028723Y-61399647D01*
X128028723Y-61399647D02*
X127981104Y-61590123D01*
X127981104Y-61590123D02*
X127933485Y-61685361D01*
X127933485Y-61685361D02*
X127838247Y-61780600D01*
X127838247Y-61780600D02*
X127695390Y-61828219D01*
X127695390Y-61828219D02*
X127600152Y-61828219D01*
X127600152Y-61828219D02*
X127457295Y-61780600D01*
X127457295Y-61780600D02*
X127409676Y-61732980D01*
X127409676Y-61732980D02*
X127409676Y-61399647D01*
X127409676Y-61399647D02*
X127600152Y-61399647D01*
X126981104Y-61828219D02*
X126981104Y-60828219D01*
X126981104Y-60828219D02*
X126409676Y-61828219D01*
X126409676Y-61828219D02*
X126409676Y-60828219D01*
X125933485Y-61828219D02*
X125933485Y-60828219D01*
X125933485Y-60828219D02*
X125695390Y-60828219D01*
X125695390Y-60828219D02*
X125552533Y-60875838D01*
X125552533Y-60875838D02*
X125457295Y-60971076D01*
X125457295Y-60971076D02*
X125409676Y-61066314D01*
X125409676Y-61066314D02*
X125362057Y-61256790D01*
X125362057Y-61256790D02*
X125362057Y-61399647D01*
X125362057Y-61399647D02*
X125409676Y-61590123D01*
X125409676Y-61590123D02*
X125457295Y-61685361D01*
X125457295Y-61685361D02*
X125552533Y-61780600D01*
X125552533Y-61780600D02*
X125695390Y-61828219D01*
X125695390Y-61828219D02*
X125933485Y-61828219D01*
X128127142Y-63495219D02*
X127508095Y-63495219D01*
X127508095Y-63495219D02*
X127841428Y-63876171D01*
X127841428Y-63876171D02*
X127698571Y-63876171D01*
X127698571Y-63876171D02*
X127603333Y-63923790D01*
X127603333Y-63923790D02*
X127555714Y-63971409D01*
X127555714Y-63971409D02*
X127508095Y-64066647D01*
X127508095Y-64066647D02*
X127508095Y-64304742D01*
X127508095Y-64304742D02*
X127555714Y-64399980D01*
X127555714Y-64399980D02*
X127603333Y-64447600D01*
X127603333Y-64447600D02*
X127698571Y-64495219D01*
X127698571Y-64495219D02*
X127984285Y-64495219D01*
X127984285Y-64495219D02*
X128079523Y-64447600D01*
X128079523Y-64447600D02*
X128127142Y-64399980D01*
X127079523Y-64399980D02*
X127031904Y-64447600D01*
X127031904Y-64447600D02*
X127079523Y-64495219D01*
X127079523Y-64495219D02*
X127127142Y-64447600D01*
X127127142Y-64447600D02*
X127079523Y-64399980D01*
X127079523Y-64399980D02*
X127079523Y-64495219D01*
X126698571Y-63495219D02*
X126079524Y-63495219D01*
X126079524Y-63495219D02*
X126412857Y-63876171D01*
X126412857Y-63876171D02*
X126270000Y-63876171D01*
X126270000Y-63876171D02*
X126174762Y-63923790D01*
X126174762Y-63923790D02*
X126127143Y-63971409D01*
X126127143Y-63971409D02*
X126079524Y-64066647D01*
X126079524Y-64066647D02*
X126079524Y-64304742D01*
X126079524Y-64304742D02*
X126127143Y-64399980D01*
X126127143Y-64399980D02*
X126174762Y-64447600D01*
X126174762Y-64447600D02*
X126270000Y-64495219D01*
X126270000Y-64495219D02*
X126555714Y-64495219D01*
X126555714Y-64495219D02*
X126650952Y-64447600D01*
X126650952Y-64447600D02*
X126698571Y-64399980D01*
X125746190Y-63828552D02*
X125508095Y-64495219D01*
X125508095Y-64495219D02*
X125270000Y-63828552D01*
%LPC*%
X125839400Y-91220847D02*
X125887019Y-91125609D01*
X125887019Y-91125609D02*
X125887019Y-90935133D01*
X125887019Y-90935133D02*
X125839400Y-90839895D01*
X125839400Y-90839895D02*
X125744161Y-90792276D01*
X125744161Y-90792276D02*
X125363209Y-90792276D01*
X125363209Y-90792276D02*
X125267971Y-90839895D01*
X125267971Y-90839895D02*
X125220352Y-90935133D01*
X125220352Y-90935133D02*
X125220352Y-91125609D01*
X125220352Y-91125609D02*
X125267971Y-91220847D01*
X125267971Y-91220847D02*
X125363209Y-91268466D01*
X125363209Y-91268466D02*
X125458447Y-91268466D01*
X125458447Y-91268466D02*
X125553685Y-90792276D01*
X125887019Y-91697038D02*
X124887019Y-91697038D01*
X124887019Y-91697038D02*
X124887019Y-91935133D01*
X124887019Y-91935133D02*
X124934638Y-92077990D01*
X124934638Y-92077990D02*
X125029876Y-92173228D01*
X125029876Y-92173228D02*
X125125114Y-92220847D01*
X125125114Y-92220847D02*
X125315590Y-92268466D01*
X125315590Y-92268466D02*
X125458447Y-92268466D01*
X125458447Y-92268466D02*
X125648923Y-92220847D01*
X125648923Y-92220847D02*
X125744161Y-92173228D01*
X125744161Y-92173228D02*
X125839400Y-92077990D01*
X125839400Y-92077990D02*
X125887019Y-91935133D01*
X125887019Y-91935133D02*
X125887019Y-91697038D01*
X125887019Y-92697038D02*
X125220352Y-92697038D01*
X124887019Y-92697038D02*
X124934638Y-92649419D01*
X124934638Y-92649419D02*
X124982257Y-92697038D01*
X124982257Y-92697038D02*
X124934638Y-92744657D01*
X124934638Y-92744657D02*
X124887019Y-92697038D01*
X124887019Y-92697038D02*
X124982257Y-92697038D01*
X125839400Y-93125609D02*
X125887019Y-93220847D01*
X125887019Y-93220847D02*
X125887019Y-93411323D01*
X125887019Y-93411323D02*
X125839400Y-93506561D01*
X125839400Y-93506561D02*
X125744161Y-93554180D01*
X125744161Y-93554180D02*
X125696542Y-93554180D01*
X125696542Y-93554180D02*
X125601304Y-93506561D01*
X125601304Y-93506561D02*
X125553685Y-93411323D01*
X125553685Y-93411323D02*
X125553685Y-93268466D01*
X125553685Y-93268466D02*
X125506066Y-93173228D01*
X125506066Y-93173228D02*
X125410828Y-93125609D01*
X125410828Y-93125609D02*
X125363209Y-93125609D01*
X125363209Y-93125609D02*
X125267971Y-93173228D01*
X125267971Y-93173228D02*
X125220352Y-93268466D01*
X125220352Y-93268466D02*
X125220352Y-93411323D01*
X125220352Y-93411323D02*
X125267971Y-93506561D01*
X125220352Y-93982752D02*
X126220352Y-93982752D01*
X125267971Y-93982752D02*
X125220352Y-94077990D01*
X125220352Y-94077990D02*
X125220352Y-94268466D01*
X125220352Y-94268466D02*
X125267971Y-94363704D01*
X125267971Y-94363704D02*
X125315590Y-94411323D01*
X125315590Y-94411323D02*
X125410828Y-94458942D01*
X125410828Y-94458942D02*
X125696542Y-94458942D01*
X125696542Y-94458942D02*
X125791780Y-94411323D01*
X125791780Y-94411323D02*
X125839400Y-94363704D01*
X125839400Y-94363704D02*
X125887019Y-94268466D01*
X125887019Y-94268466D02*
X125887019Y-94077990D01*
X125887019Y-94077990D02*
X125839400Y-93982752D01*
X125887019Y-95030371D02*
X125839400Y-94935133D01*
X125839400Y-94935133D02*
X125744161Y-94887514D01*
X125744161Y-94887514D02*
X124887019Y-94887514D01*
X125887019Y-95839895D02*
X125363209Y-95839895D01*
X125363209Y-95839895D02*
X125267971Y-95792276D01*
X125267971Y-95792276D02*
X125220352Y-95697038D01*
X125220352Y-95697038D02*
X125220352Y-95506562D01*
X125220352Y-95506562D02*
X125267971Y-95411324D01*
X125839400Y-95839895D02*
X125887019Y-95744657D01*
X125887019Y-95744657D02*
X125887019Y-95506562D01*
X125887019Y-95506562D02*
X125839400Y-95411324D01*
X125839400Y-95411324D02*
X125744161Y-95363705D01*
X125744161Y-95363705D02*
X125648923Y-95363705D01*
X125648923Y-95363705D02*
X125553685Y-95411324D01*
X125553685Y-95411324D02*
X125506066Y-95506562D01*
X125506066Y-95506562D02*
X125506066Y-95744657D01*
X125506066Y-95744657D02*
X125458447Y-95839895D01*
X125220352Y-96220848D02*
X125887019Y-96458943D01*
X125220352Y-96697038D02*
X125887019Y-96458943D01*
X125887019Y-96458943D02*
X126125114Y-96363705D01*
X126125114Y-96363705D02*
X126172733Y-96316086D01*
X126172733Y-96316086D02*
X126220352Y-96220848D01*
X125887019Y-98411324D02*
X125410828Y-98077991D01*
X125887019Y-97839896D02*
X124887019Y-97839896D01*
X124887019Y-97839896D02*
X124887019Y-98220848D01*
X124887019Y-98220848D02*
X124934638Y-98316086D01*
X124934638Y-98316086D02*
X124982257Y-98363705D01*
X124982257Y-98363705D02*
X125077495Y-98411324D01*
X125077495Y-98411324D02*
X125220352Y-98411324D01*
X125220352Y-98411324D02*
X125315590Y-98363705D01*
X125315590Y-98363705D02*
X125363209Y-98316086D01*
X125363209Y-98316086D02*
X125410828Y-98220848D01*
X125410828Y-98220848D02*
X125410828Y-97839896D01*
X125887019Y-98839896D02*
X124887019Y-98839896D01*
X124887019Y-98839896D02*
X124887019Y-99220848D01*
X124887019Y-99220848D02*
X124934638Y-99316086D01*
X124934638Y-99316086D02*
X124982257Y-99363705D01*
X124982257Y-99363705D02*
X125077495Y-99411324D01*
X125077495Y-99411324D02*
X125220352Y-99411324D01*
X125220352Y-99411324D02*
X125315590Y-99363705D01*
X125315590Y-99363705D02*
X125363209Y-99316086D01*
X125363209Y-99316086D02*
X125410828Y-99220848D01*
X125410828Y-99220848D02*
X125410828Y-98839896D01*
X125887019Y-99839896D02*
X125220352Y-99839896D01*
X124887019Y-99839896D02*
X124934638Y-99792277D01*
X124934638Y-99792277D02*
X124982257Y-99839896D01*
X124982257Y-99839896D02*
X124934638Y-99887515D01*
X124934638Y-99887515D02*
X124887019Y-99839896D01*
X124887019Y-99839896D02*
X124982257Y-99839896D01*
X125601304Y-101030372D02*
X125601304Y-101506562D01*
X125887019Y-100935134D02*
X124887019Y-101268467D01*
X124887019Y-101268467D02*
X125887019Y-101601800D01*
X125887019Y-102363705D02*
X124887019Y-102363705D01*
X125839400Y-102363705D02*
X125887019Y-102268467D01*
X125887019Y-102268467D02*
X125887019Y-102077991D01*
X125887019Y-102077991D02*
X125839400Y-101982753D01*
X125839400Y-101982753D02*
X125791780Y-101935134D01*
X125791780Y-101935134D02*
X125696542Y-101887515D01*
X125696542Y-101887515D02*
X125410828Y-101887515D01*
X125410828Y-101887515D02*
X125315590Y-101935134D01*
X125315590Y-101935134D02*
X125267971Y-101982753D01*
X125267971Y-101982753D02*
X125220352Y-102077991D01*
X125220352Y-102077991D02*
X125220352Y-102268467D01*
X125220352Y-102268467D02*
X125267971Y-102363705D01*
X125887019Y-103268467D02*
X125363209Y-103268467D01*
X125363209Y-103268467D02*
X125267971Y-103220848D01*
X125267971Y-103220848D02*
X125220352Y-103125610D01*
X125220352Y-103125610D02*
X125220352Y-102935134D01*
X125220352Y-102935134D02*
X125267971Y-102839896D01*
X125839400Y-103268467D02*
X125887019Y-103173229D01*
X125887019Y-103173229D02*
X125887019Y-102935134D01*
X125887019Y-102935134D02*
X125839400Y-102839896D01*
X125839400Y-102839896D02*
X125744161Y-102792277D01*
X125744161Y-102792277D02*
X125648923Y-102792277D01*
X125648923Y-102792277D02*
X125553685Y-102839896D01*
X125553685Y-102839896D02*
X125506066Y-102935134D01*
X125506066Y-102935134D02*
X125506066Y-103173229D01*
X125506066Y-103173229D02*
X125458447Y-103268467D01*
X125220352Y-103744658D02*
X126220352Y-103744658D01*
X125267971Y-103744658D02*
X125220352Y-103839896D01*
X125220352Y-103839896D02*
X125220352Y-104030372D01*
X125220352Y-104030372D02*
X125267971Y-104125610D01*
X125267971Y-104125610D02*
X125315590Y-104173229D01*
X125315590Y-104173229D02*
X125410828Y-104220848D01*
X125410828Y-104220848D02*
X125696542Y-104220848D01*
X125696542Y-104220848D02*
X125791780Y-104173229D01*
X125791780Y-104173229D02*
X125839400Y-104125610D01*
X125839400Y-104125610D02*
X125887019Y-104030372D01*
X125887019Y-104030372D02*
X125887019Y-103839896D01*
X125887019Y-103839896D02*
X125839400Y-103744658D01*
X125220352Y-104506563D02*
X125220352Y-104887515D01*
X124887019Y-104649420D02*
X125744161Y-104649420D01*
X125744161Y-104649420D02*
X125839400Y-104697039D01*
X125839400Y-104697039D02*
X125887019Y-104792277D01*
X125887019Y-104792277D02*
X125887019Y-104887515D01*
X125839400Y-105601801D02*
X125887019Y-105506563D01*
X125887019Y-105506563D02*
X125887019Y-105316087D01*
X125887019Y-105316087D02*
X125839400Y-105220849D01*
X125839400Y-105220849D02*
X125744161Y-105173230D01*
X125744161Y-105173230D02*
X125363209Y-105173230D01*
X125363209Y-105173230D02*
X125267971Y-105220849D01*
X125267971Y-105220849D02*
X125220352Y-105316087D01*
X125220352Y-105316087D02*
X125220352Y-105506563D01*
X125220352Y-105506563D02*
X125267971Y-105601801D01*
X125267971Y-105601801D02*
X125363209Y-105649420D01*
X125363209Y-105649420D02*
X125458447Y-105649420D01*
X125458447Y-105649420D02*
X125553685Y-105173230D01*
X125887019Y-106077992D02*
X125220352Y-106077992D01*
X125410828Y-106077992D02*
X125315590Y-106125611D01*
X125315590Y-106125611D02*
X125267971Y-106173230D01*
X125267971Y-106173230D02*
X125220352Y-106268468D01*
X125220352Y-106268468D02*
X125220352Y-106363706D01*
X125220352Y-107363707D02*
X125887019Y-107601802D01*
X125887019Y-107601802D02*
X125220352Y-107839897D01*
X125887019Y-108744659D02*
X125887019Y-108173231D01*
X125887019Y-108458945D02*
X124887019Y-108458945D01*
X124887019Y-108458945D02*
X125029876Y-108363707D01*
X125029876Y-108363707D02*
X125125114Y-108268469D01*
X125125114Y-108268469D02*
X125172733Y-108173231D01*
X125791780Y-109173231D02*
X125839400Y-109220850D01*
X125839400Y-109220850D02*
X125887019Y-109173231D01*
X125887019Y-109173231D02*
X125839400Y-109125612D01*
X125839400Y-109125612D02*
X125791780Y-109173231D01*
X125791780Y-109173231D02*
X125887019Y-109173231D01*
X124887019Y-109839897D02*
X124887019Y-109935135D01*
X124887019Y-109935135D02*
X124934638Y-110030373D01*
X124934638Y-110030373D02*
X124982257Y-110077992D01*
X124982257Y-110077992D02*
X125077495Y-110125611D01*
X125077495Y-110125611D02*
X125267971Y-110173230D01*
X125267971Y-110173230D02*
X125506066Y-110173230D01*
X125506066Y-110173230D02*
X125696542Y-110125611D01*
X125696542Y-110125611D02*
X125791780Y-110077992D01*
X125791780Y-110077992D02*
X125839400Y-110030373D01*
X125839400Y-110030373D02*
X125887019Y-109935135D01*
X125887019Y-109935135D02*
X125887019Y-109839897D01*
X125887019Y-109839897D02*
X125839400Y-109744659D01*
X125839400Y-109744659D02*
X125791780Y-109697040D01*
X125791780Y-109697040D02*
X125696542Y-109649421D01*
X125696542Y-109649421D02*
X125506066Y-109601802D01*
X125506066Y-109601802D02*
X125267971Y-109601802D01*
X125267971Y-109601802D02*
X125077495Y-109649421D01*
X125077495Y-109649421D02*
X124982257Y-109697040D01*
X124982257Y-109697040D02*
X124934638Y-109744659D01*
X124934638Y-109744659D02*
X124887019Y-109839897D01*
D11*
X134874000Y-75935600D03*
D12*
X134874000Y-78475600D03*
D11*
X134797800Y-98871800D03*
D12*
X134797800Y-101411800D03*
X134797800Y-103951800D03*
D11*
X134797800Y-83845000D03*
D12*
X134797800Y-86385000D03*
X134797800Y-88925000D03*
X134797800Y-91465000D03*
D11*
X130124200Y-63881000D03*
D12*
X130124200Y-61341000D03*
X130124200Y-58801000D03*
D11*
X134797800Y-66532600D03*
D12*
X134797800Y-69072600D03*
D11*
X143738600Y-58648600D03*
D12*
X146278600Y-58648600D03*
X143738600Y-61188600D03*
X146278600Y-61188600D03*
X143738600Y-63728600D03*
X146278600Y-63728600D03*
X143738600Y-66268600D03*
X146278600Y-66268600D03*
X143738600Y-68808600D03*
X146278600Y-68808600D03*
X143738600Y-71348600D03*
X146278600Y-71348600D03*
X143738600Y-73888600D03*
X146278600Y-73888600D03*
X143738600Y-76428600D03*
X146278600Y-76428600D03*
X143738600Y-78968600D03*
X146278600Y-78968600D03*
X143738600Y-81508600D03*
X146278600Y-81508600D03*
X143738600Y-84048600D03*
X146278600Y-84048600D03*
X143738600Y-86588600D03*
X146278600Y-86588600D03*
X143738600Y-89128600D03*
X146278600Y-89128600D03*
X143738600Y-91668600D03*
X146278600Y-91668600D03*
X143738600Y-94208600D03*
X146278600Y-94208600D03*
X143738600Y-96748600D03*
X146278600Y-96748600D03*
X143738600Y-99288600D03*
X146278600Y-99288600D03*
X143738600Y-101828600D03*
X146278600Y-101828600D03*
X143738600Y-104368600D03*
X146278600Y-104368600D03*
X143738600Y-106908600D03*
X146278600Y-106908600D03*
%LPD*%
M02*
