%TF.GenerationSoftware,KiCad,Pcbnew,7.0.2-6a45011f42~172~ubuntu20.04.1*%
%TF.CreationDate,2023-04-23T14:48:56-04:00*%
%TF.ProjectId,RPiHeaderAdapter,52506948-6561-4646-9572-416461707465,rev?*%
%TF.SameCoordinates,Original*%
%TF.FileFunction,Copper,L1,Top*%
%TF.FilePolarity,Positive*%
%FSLAX46Y46*%
G04 Gerber Fmt 4.6, Leading zero omitted, Abs format (unit mm)*
G04 Created by KiCad (PCBNEW 7.0.2-6a45011f42~172~ubuntu20.04.1) date 2023-04-23 14:48:56*
%MOMM*%
%LPD*%
G01*
G04 APERTURE LIST*
%TA.AperFunction,ComponentPad*%
%ADD10R,1.700000X1.700000*%
%TD*%
%TA.AperFunction,ComponentPad*%
%ADD11O,1.700000X1.700000*%
%TD*%
%TA.AperFunction,ViaPad*%
%ADD12C,0.800000*%
%TD*%
%TA.AperFunction,Conductor*%
%ADD13C,0.250000*%
%TD*%
G04 APERTURE END LIST*
D10*
X134874000Y-75935600D03*
D11*
X134874000Y-78475600D03*
D10*
X134797800Y-98871800D03*
D11*
X134797800Y-101411800D03*
X134797800Y-103951800D03*
D10*
X134797800Y-83845000D03*
D11*
X134797800Y-86385000D03*
X134797800Y-88925000D03*
X134797800Y-91465000D03*
D10*
X130124200Y-63881000D03*
D11*
X130124200Y-61341000D03*
X130124200Y-58801000D03*
D10*
X134797800Y-66532600D03*
D11*
X134797800Y-69072600D03*
D10*
X143738600Y-58648600D03*
D11*
X146278600Y-58648600D03*
X143738600Y-61188600D03*
X146278600Y-61188600D03*
X143738600Y-63728600D03*
X146278600Y-63728600D03*
X143738600Y-66268600D03*
X146278600Y-66268600D03*
X143738600Y-68808600D03*
X146278600Y-68808600D03*
X143738600Y-71348600D03*
X146278600Y-71348600D03*
X143738600Y-73888600D03*
X146278600Y-73888600D03*
X143738600Y-76428600D03*
X146278600Y-76428600D03*
X143738600Y-78968600D03*
X146278600Y-78968600D03*
X143738600Y-81508600D03*
X146278600Y-81508600D03*
X143738600Y-84048600D03*
X146278600Y-84048600D03*
X143738600Y-86588600D03*
X146278600Y-86588600D03*
X143738600Y-89128600D03*
X146278600Y-89128600D03*
X143738600Y-91668600D03*
X146278600Y-91668600D03*
X143738600Y-94208600D03*
X146278600Y-94208600D03*
X143738600Y-96748600D03*
X146278600Y-96748600D03*
X143738600Y-99288600D03*
X146278600Y-99288600D03*
X143738600Y-101828600D03*
X146278600Y-101828600D03*
X143738600Y-104368600D03*
X146278600Y-104368600D03*
X143738600Y-106908600D03*
X146278600Y-106908600D03*
D12*
X148005800Y-82753200D03*
D13*
X136931400Y-58648600D02*
X143738600Y-58648600D01*
X130124200Y-63881000D02*
X131699000Y-63881000D01*
X131699000Y-63881000D02*
X136931400Y-58648600D01*
X130124200Y-58801000D02*
X132638800Y-56286400D01*
X132638800Y-56286400D02*
X145618200Y-56286400D01*
X134797800Y-98871800D02*
X139486400Y-98871800D01*
X148920200Y-108458000D02*
X148920200Y-81610200D01*
X139486400Y-98871800D02*
X140487400Y-99872800D01*
X140487400Y-99872800D02*
X140487400Y-108356400D01*
X140487400Y-108356400D02*
X141351000Y-109220000D01*
X141351000Y-109220000D02*
X148158200Y-109220000D01*
X148158200Y-109220000D02*
X148920200Y-108458000D01*
X148920200Y-81610200D02*
X146278600Y-78968600D01*
X134797800Y-103951800D02*
X131866400Y-103951800D01*
X131866400Y-103951800D02*
X126746000Y-98831400D01*
X134797800Y-91465000D02*
X138862200Y-91465000D01*
X138862200Y-91465000D02*
X143738600Y-86588600D01*
X134797800Y-88925000D02*
X138862200Y-88925000D01*
X138862200Y-88925000D02*
X143738600Y-84048600D01*
X134797800Y-86385000D02*
X138862200Y-86385000D01*
X138862200Y-86385000D02*
X143738600Y-81508600D01*
X134874000Y-78475600D02*
X141691600Y-78475600D01*
X141691600Y-78475600D02*
X143738600Y-76428600D01*
X134874000Y-75935600D02*
X141691600Y-75935600D01*
X141691600Y-75935600D02*
X143738600Y-73888600D01*
X134797800Y-69072600D02*
X138394600Y-69072600D01*
X138394600Y-69072600D02*
X143738600Y-63728600D01*
X134797800Y-66532600D02*
X138394600Y-66532600D01*
X138394600Y-66532600D02*
X143738600Y-61188600D01*
X145618200Y-56286400D02*
X146278600Y-56946800D01*
X146278600Y-56946800D02*
X146278600Y-58648600D01*
X126746000Y-98831400D02*
X126746000Y-75057000D01*
X126746000Y-75057000D02*
X130454400Y-71348600D01*
X130454400Y-71348600D02*
X143738600Y-71348600D01*
X146278600Y-58648600D02*
X146278600Y-61188600D01*
%TA.AperFunction,Conductor*%
G36*
X142530412Y-71993785D02*
G01*
X142564945Y-72026973D01*
X142700105Y-72220001D01*
X142867199Y-72387095D01*
X143052760Y-72517026D01*
X143096383Y-72571602D01*
X143103576Y-72641101D01*
X143072054Y-72703455D01*
X143052759Y-72720175D01*
X142867195Y-72850108D01*
X142700105Y-73017198D01*
X142564565Y-73210770D01*
X142464697Y-73424936D01*
X142403536Y-73653192D01*
X142382940Y-73888599D01*
X142403536Y-74124008D01*
X142430455Y-74224473D01*
X142428792Y-74294322D01*
X142398361Y-74344246D01*
X141468828Y-75273781D01*
X141407505Y-75307266D01*
X141381147Y-75310100D01*
X136348499Y-75310100D01*
X136281460Y-75290415D01*
X136235705Y-75237611D01*
X136224499Y-75186100D01*
X136224499Y-75041039D01*
X136224499Y-75037728D01*
X136218091Y-74978117D01*
X136167796Y-74843269D01*
X136081546Y-74728054D01*
X135966331Y-74641804D01*
X135831483Y-74591509D01*
X135771873Y-74585100D01*
X135768550Y-74585100D01*
X133979439Y-74585100D01*
X133979420Y-74585100D01*
X133976128Y-74585101D01*
X133972848Y-74585453D01*
X133972840Y-74585454D01*
X133916515Y-74591509D01*
X133781669Y-74641804D01*
X133666454Y-74728054D01*
X133580204Y-74843268D01*
X133529909Y-74978116D01*
X133526721Y-75007773D01*
X133523500Y-75037727D01*
X133523500Y-75041048D01*
X133523500Y-75041049D01*
X133523500Y-76830160D01*
X133523500Y-76830178D01*
X133523501Y-76833472D01*
X133523853Y-76836752D01*
X133523854Y-76836759D01*
X133529909Y-76893084D01*
X133555056Y-76960506D01*
X133580204Y-77027931D01*
X133666454Y-77143146D01*
X133781669Y-77229396D01*
X133893907Y-77271258D01*
X133913082Y-77278410D01*
X133969016Y-77320281D01*
X133993433Y-77385746D01*
X133978581Y-77454019D01*
X133957431Y-77482273D01*
X133835503Y-77604201D01*
X133699965Y-77797770D01*
X133600097Y-78011936D01*
X133538936Y-78240192D01*
X133518340Y-78475600D01*
X133538936Y-78711007D01*
X133575512Y-78847511D01*
X133600097Y-78939263D01*
X133699965Y-79153430D01*
X133835505Y-79347001D01*
X134002599Y-79514095D01*
X134196170Y-79649635D01*
X134410337Y-79749503D01*
X134638592Y-79810663D01*
X134874000Y-79831259D01*
X135109408Y-79810663D01*
X135337663Y-79749503D01*
X135551830Y-79649635D01*
X135745401Y-79514095D01*
X135912495Y-79347001D01*
X136047653Y-79153974D01*
X136102229Y-79110352D01*
X136149227Y-79101100D01*
X141608856Y-79101100D01*
X141629362Y-79103364D01*
X141632265Y-79103272D01*
X141632267Y-79103273D01*
X141699472Y-79101161D01*
X141703368Y-79101100D01*
X141727048Y-79101100D01*
X141730950Y-79101100D01*
X141734913Y-79100599D01*
X141746562Y-79099680D01*
X141790227Y-79098309D01*
X141809459Y-79092720D01*
X141828518Y-79088774D01*
X141834796Y-79087981D01*
X141848392Y-79086264D01*
X141889007Y-79070182D01*
X141900044Y-79066403D01*
X141941990Y-79054218D01*
X141959229Y-79044022D01*
X141976702Y-79035462D01*
X141995332Y-79028086D01*
X142030664Y-79002414D01*
X142040430Y-78996000D01*
X142078018Y-78973771D01*
X142078017Y-78973771D01*
X142078020Y-78973770D01*
X142092185Y-78959604D01*
X142106973Y-78946973D01*
X142123187Y-78935194D01*
X142151038Y-78901526D01*
X142158879Y-78892909D01*
X142170794Y-78880994D01*
X142232115Y-78847511D01*
X142301807Y-78852495D01*
X142357740Y-78894367D01*
X142382001Y-78957869D01*
X142403536Y-79204007D01*
X142430456Y-79304472D01*
X142464697Y-79432263D01*
X142564565Y-79646430D01*
X142700105Y-79840001D01*
X142867199Y-80007095D01*
X143052760Y-80137026D01*
X143096383Y-80191602D01*
X143103576Y-80261101D01*
X143072054Y-80323455D01*
X143052759Y-80340175D01*
X142867195Y-80470108D01*
X142700105Y-80637198D01*
X142564565Y-80830770D01*
X142464697Y-81044936D01*
X142403536Y-81273192D01*
X142382940Y-81508600D01*
X142403536Y-81744005D01*
X142403537Y-81744008D01*
X142429096Y-81839398D01*
X142430456Y-81844471D01*
X142428793Y-81914321D01*
X142398362Y-81964246D01*
X138639428Y-85723181D01*
X138578105Y-85756666D01*
X138551747Y-85759500D01*
X136073026Y-85759500D01*
X136005987Y-85739815D01*
X135971451Y-85706623D01*
X135836295Y-85513599D01*
X135714369Y-85391673D01*
X135680884Y-85330350D01*
X135685868Y-85260658D01*
X135727740Y-85204725D01*
X135758715Y-85187810D01*
X135890131Y-85138796D01*
X136005346Y-85052546D01*
X136091596Y-84937331D01*
X136141891Y-84802483D01*
X136148300Y-84742873D01*
X136148299Y-82947128D01*
X136141891Y-82887517D01*
X136091596Y-82752669D01*
X136005346Y-82637454D01*
X135890131Y-82551204D01*
X135755283Y-82500909D01*
X135695673Y-82494500D01*
X135692350Y-82494500D01*
X133903239Y-82494500D01*
X133903220Y-82494500D01*
X133899928Y-82494501D01*
X133896648Y-82494853D01*
X133896640Y-82494854D01*
X133840315Y-82500909D01*
X133705469Y-82551204D01*
X133590254Y-82637454D01*
X133504004Y-82752668D01*
X133453710Y-82887515D01*
X133453709Y-82887517D01*
X133447300Y-82947127D01*
X133447300Y-82950448D01*
X133447300Y-82950449D01*
X133447300Y-84739560D01*
X133447300Y-84739578D01*
X133447301Y-84742872D01*
X133453709Y-84802483D01*
X133504004Y-84937331D01*
X133590254Y-85052546D01*
X133705469Y-85138796D01*
X133817707Y-85180658D01*
X133836882Y-85187810D01*
X133892816Y-85229681D01*
X133917233Y-85295146D01*
X133902381Y-85363419D01*
X133881231Y-85391673D01*
X133759303Y-85513601D01*
X133623765Y-85707170D01*
X133523897Y-85921336D01*
X133462736Y-86149592D01*
X133442140Y-86384999D01*
X133462736Y-86620407D01*
X133507509Y-86787501D01*
X133523897Y-86848663D01*
X133623765Y-87062830D01*
X133759305Y-87256401D01*
X133926399Y-87423495D01*
X134111960Y-87553426D01*
X134155583Y-87608002D01*
X134162776Y-87677501D01*
X134131254Y-87739855D01*
X134111958Y-87756575D01*
X133938239Y-87878215D01*
X133926395Y-87886508D01*
X133759305Y-88053598D01*
X133623765Y-88247170D01*
X133523897Y-88461336D01*
X133462736Y-88689592D01*
X133442140Y-88924999D01*
X133462736Y-89160407D01*
X133507509Y-89327502D01*
X133523897Y-89388663D01*
X133623765Y-89602830D01*
X133759305Y-89796401D01*
X133926399Y-89963495D01*
X134111960Y-90093426D01*
X134155583Y-90148002D01*
X134162776Y-90217501D01*
X134131254Y-90279855D01*
X134111959Y-90296575D01*
X133926395Y-90426508D01*
X133759305Y-90593598D01*
X133623765Y-90787170D01*
X133523897Y-91001336D01*
X133462736Y-91229592D01*
X133442140Y-91465000D01*
X133462736Y-91700407D01*
X133507509Y-91867502D01*
X133523897Y-91928663D01*
X133623765Y-92142830D01*
X133759305Y-92336401D01*
X133926399Y-92503495D01*
X134119970Y-92639035D01*
X134334137Y-92738903D01*
X134562392Y-92800063D01*
X134797800Y-92820659D01*
X135033208Y-92800063D01*
X135261463Y-92738903D01*
X135475630Y-92639035D01*
X135669201Y-92503495D01*
X135836295Y-92336401D01*
X135971453Y-92143374D01*
X136026029Y-92099752D01*
X136073027Y-92090500D01*
X138779456Y-92090500D01*
X138799962Y-92092764D01*
X138802865Y-92092672D01*
X138802867Y-92092673D01*
X138870072Y-92090561D01*
X138873968Y-92090500D01*
X138897648Y-92090500D01*
X138901550Y-92090500D01*
X138905513Y-92089999D01*
X138917162Y-92089080D01*
X138960827Y-92087709D01*
X138980059Y-92082120D01*
X138999118Y-92078174D01*
X139005396Y-92077381D01*
X139018992Y-92075664D01*
X139059607Y-92059582D01*
X139070644Y-92055803D01*
X139112590Y-92043618D01*
X139129829Y-92033422D01*
X139147302Y-92024862D01*
X139165932Y-92017486D01*
X139201264Y-91991814D01*
X139211030Y-91985400D01*
X139248618Y-91963171D01*
X139248617Y-91963171D01*
X139248620Y-91963170D01*
X139262785Y-91949004D01*
X139277573Y-91936373D01*
X139293787Y-91924594D01*
X139321638Y-91890926D01*
X139329479Y-91882309D01*
X142171331Y-89040457D01*
X142232651Y-89006975D01*
X142302343Y-89011959D01*
X142358276Y-89053831D01*
X142382144Y-89117823D01*
X142382497Y-89117793D01*
X142382608Y-89119068D01*
X142382693Y-89119295D01*
X142382687Y-89119973D01*
X142404030Y-89363918D01*
X142465169Y-89592092D01*
X142565000Y-89806180D01*
X142623673Y-89889973D01*
X143255522Y-89258123D01*
X143279107Y-89338444D01*
X143356839Y-89459398D01*
X143465500Y-89553552D01*
X143596285Y-89613280D01*
X143606066Y-89614686D01*
X142977225Y-90243525D01*
X143053194Y-90296719D01*
X143096819Y-90351296D01*
X143104013Y-90420794D01*
X143072490Y-90483149D01*
X143053195Y-90499869D01*
X142867195Y-90630108D01*
X142700105Y-90797198D01*
X142564565Y-90990770D01*
X142464697Y-91204936D01*
X142403536Y-91433192D01*
X142382940Y-91668599D01*
X142403536Y-91904007D01*
X142438214Y-92033425D01*
X142464697Y-92132263D01*
X142564565Y-92346430D01*
X142700105Y-92540001D01*
X142867199Y-92707095D01*
X143052760Y-92837026D01*
X143096383Y-92891602D01*
X143103576Y-92961101D01*
X143072054Y-93023455D01*
X143052759Y-93040175D01*
X142867195Y-93170108D01*
X142700105Y-93337198D01*
X142564565Y-93530770D01*
X142464697Y-93744936D01*
X142403536Y-93973192D01*
X142382940Y-94208600D01*
X142403536Y-94444007D01*
X142429096Y-94539398D01*
X142464697Y-94672263D01*
X142564565Y-94886430D01*
X142700105Y-95080001D01*
X142867199Y-95247095D01*
X143052760Y-95377026D01*
X143096383Y-95431602D01*
X143103576Y-95501101D01*
X143072054Y-95563455D01*
X143052759Y-95580175D01*
X142867195Y-95710108D01*
X142700105Y-95877198D01*
X142564565Y-96070770D01*
X142464697Y-96284936D01*
X142403536Y-96513192D01*
X142382940Y-96748599D01*
X142403536Y-96984007D01*
X142448309Y-97151101D01*
X142464697Y-97212263D01*
X142564565Y-97426430D01*
X142700105Y-97620001D01*
X142867199Y-97787095D01*
X143052760Y-97917026D01*
X143096383Y-97971602D01*
X143103576Y-98041101D01*
X143072054Y-98103455D01*
X143052758Y-98120175D01*
X142879289Y-98241640D01*
X142867195Y-98250108D01*
X142700105Y-98417198D01*
X142564565Y-98610770D01*
X142464697Y-98824936D01*
X142403536Y-99053192D01*
X142382940Y-99288600D01*
X142403536Y-99524007D01*
X142444102Y-99675400D01*
X142464697Y-99752263D01*
X142564565Y-99966430D01*
X142700105Y-100160001D01*
X142867199Y-100327095D01*
X143052760Y-100457026D01*
X143096383Y-100511602D01*
X143103576Y-100581101D01*
X143072054Y-100643455D01*
X143052758Y-100660175D01*
X142947369Y-100733970D01*
X142867195Y-100790108D01*
X142700105Y-100957198D01*
X142564565Y-101150770D01*
X142464697Y-101364936D01*
X142403536Y-101593192D01*
X142382940Y-101828600D01*
X142403536Y-102064007D01*
X142410402Y-102089630D01*
X142464697Y-102292263D01*
X142564565Y-102506430D01*
X142700105Y-102700001D01*
X142867199Y-102867095D01*
X143052760Y-102997026D01*
X143096383Y-103051602D01*
X143103576Y-103121101D01*
X143072054Y-103183455D01*
X143052758Y-103200175D01*
X142885847Y-103317048D01*
X142867195Y-103330108D01*
X142700105Y-103497198D01*
X142564565Y-103690770D01*
X142464697Y-103904936D01*
X142403536Y-104133192D01*
X142382940Y-104368599D01*
X142403536Y-104604007D01*
X142448309Y-104771102D01*
X142464697Y-104832263D01*
X142564565Y-105046430D01*
X142700105Y-105240001D01*
X142867199Y-105407095D01*
X143053196Y-105537332D01*
X143096819Y-105591907D01*
X143104012Y-105661406D01*
X143072490Y-105723760D01*
X143053194Y-105740481D01*
X142977226Y-105793673D01*
X143606066Y-106422513D01*
X143596285Y-106423920D01*
X143465500Y-106483648D01*
X143356839Y-106577802D01*
X143279107Y-106698756D01*
X143255523Y-106779075D01*
X142623673Y-106147225D01*
X142623672Y-106147225D01*
X142564999Y-106231022D01*
X142465169Y-106445107D01*
X142404030Y-106673281D01*
X142383442Y-106908599D01*
X142404030Y-107143918D01*
X142465169Y-107372092D01*
X142565000Y-107586180D01*
X142623673Y-107669973D01*
X143255523Y-107038123D01*
X143279107Y-107118444D01*
X143356839Y-107239398D01*
X143465500Y-107333552D01*
X143596285Y-107393280D01*
X143606066Y-107394686D01*
X142977225Y-108023525D01*
X143061020Y-108082199D01*
X143275107Y-108182030D01*
X143503281Y-108243169D01*
X143738600Y-108263757D01*
X143973918Y-108243169D01*
X144202092Y-108182030D01*
X144416176Y-108082200D01*
X144499973Y-108023525D01*
X143871133Y-107394686D01*
X143880915Y-107393280D01*
X144011700Y-107333552D01*
X144120361Y-107239398D01*
X144198093Y-107118444D01*
X144221676Y-107038124D01*
X144853525Y-107669973D01*
X144906719Y-107594005D01*
X144961296Y-107550380D01*
X145030794Y-107543186D01*
X145093149Y-107574709D01*
X145109865Y-107594000D01*
X145240105Y-107780001D01*
X145407199Y-107947095D01*
X145600770Y-108082635D01*
X145814937Y-108182503D01*
X146043192Y-108243663D01*
X146278600Y-108264259D01*
X146514008Y-108243663D01*
X146742263Y-108182503D01*
X146956430Y-108082635D01*
X147150001Y-107947095D01*
X147317095Y-107780001D01*
X147452635Y-107586430D01*
X147552503Y-107372263D01*
X147613663Y-107144008D01*
X147634259Y-106908600D01*
X147613663Y-106673192D01*
X147552503Y-106444937D01*
X147452635Y-106230771D01*
X147317095Y-106037199D01*
X147150001Y-105870105D01*
X146964439Y-105740173D01*
X146920816Y-105685598D01*
X146913622Y-105616100D01*
X146945145Y-105553745D01*
X146964437Y-105537028D01*
X147150001Y-105407095D01*
X147317095Y-105240001D01*
X147452635Y-105046430D01*
X147552503Y-104832263D01*
X147613663Y-104604008D01*
X147634259Y-104368600D01*
X147613663Y-104133192D01*
X147552503Y-103904937D01*
X147452635Y-103690771D01*
X147317095Y-103497199D01*
X147150001Y-103330105D01*
X146964439Y-103200173D01*
X146920817Y-103145598D01*
X146913624Y-103076099D01*
X146945146Y-103013745D01*
X146964437Y-102997028D01*
X147150001Y-102867095D01*
X147317095Y-102700001D01*
X147452635Y-102506430D01*
X147552503Y-102292263D01*
X147613663Y-102064008D01*
X147634259Y-101828600D01*
X147613663Y-101593192D01*
X147552503Y-101364937D01*
X147452635Y-101150771D01*
X147317095Y-100957199D01*
X147150001Y-100790105D01*
X146964002Y-100659867D01*
X146920380Y-100605292D01*
X146913187Y-100535793D01*
X146944709Y-100473439D01*
X146964005Y-100456719D01*
X147039973Y-100403525D01*
X146411133Y-99774686D01*
X146420915Y-99773280D01*
X146551700Y-99713552D01*
X146660361Y-99619398D01*
X146738093Y-99498444D01*
X146761676Y-99418124D01*
X147393525Y-100049973D01*
X147452200Y-99966176D01*
X147552030Y-99752092D01*
X147613169Y-99523918D01*
X147633757Y-99288599D01*
X147613169Y-99053281D01*
X147552030Y-98825107D01*
X147452199Y-98611021D01*
X147393526Y-98527226D01*
X147393525Y-98527225D01*
X146761676Y-99159075D01*
X146738093Y-99078756D01*
X146660361Y-98957802D01*
X146551700Y-98863648D01*
X146420915Y-98803920D01*
X146411132Y-98802513D01*
X147039973Y-98173673D01*
X147039973Y-98173672D01*
X146964005Y-98120480D01*
X146920380Y-98065904D01*
X146913186Y-97996405D01*
X146944708Y-97934051D01*
X146963999Y-97917334D01*
X147150001Y-97787095D01*
X147317095Y-97620001D01*
X147452635Y-97426430D01*
X147552503Y-97212263D01*
X147613663Y-96984008D01*
X147634259Y-96748600D01*
X147613663Y-96513192D01*
X147552503Y-96284937D01*
X147452635Y-96070771D01*
X147317095Y-95877199D01*
X147150001Y-95710105D01*
X146964002Y-95579867D01*
X146920380Y-95525292D01*
X146913187Y-95455793D01*
X146944709Y-95393439D01*
X146964005Y-95376719D01*
X147039973Y-95323525D01*
X146411133Y-94694686D01*
X146420915Y-94693280D01*
X146551700Y-94633552D01*
X146660361Y-94539398D01*
X146738093Y-94418444D01*
X146761676Y-94338124D01*
X147393525Y-94969973D01*
X147452200Y-94886176D01*
X147552030Y-94672092D01*
X147613169Y-94443918D01*
X147633757Y-94208600D01*
X147613169Y-93973281D01*
X147552030Y-93745107D01*
X147452199Y-93531021D01*
X147393526Y-93447226D01*
X147393525Y-93447225D01*
X146761676Y-94079075D01*
X146738093Y-93998756D01*
X146660361Y-93877802D01*
X146551700Y-93783648D01*
X146420915Y-93723920D01*
X146411132Y-93722513D01*
X147039973Y-93093673D01*
X147039973Y-93093672D01*
X146964005Y-93040480D01*
X146920380Y-92985904D01*
X146913186Y-92916405D01*
X146944708Y-92854051D01*
X146963999Y-92837334D01*
X147150001Y-92707095D01*
X147317095Y-92540001D01*
X147452635Y-92346430D01*
X147552503Y-92132263D01*
X147613663Y-91904008D01*
X147634259Y-91668600D01*
X147613663Y-91433192D01*
X147552503Y-91204937D01*
X147452635Y-90990771D01*
X147317095Y-90797199D01*
X147150001Y-90630105D01*
X146964439Y-90500173D01*
X146920816Y-90445598D01*
X146913622Y-90376100D01*
X146945145Y-90313745D01*
X146964437Y-90297028D01*
X147150001Y-90167095D01*
X147317095Y-90000001D01*
X147452635Y-89806430D01*
X147552503Y-89592263D01*
X147613663Y-89364008D01*
X147634259Y-89128600D01*
X147613663Y-88893192D01*
X147552503Y-88664937D01*
X147452635Y-88450771D01*
X147317095Y-88257199D01*
X147150001Y-88090105D01*
X146964439Y-87960173D01*
X146920816Y-87905598D01*
X146913622Y-87836100D01*
X146945145Y-87773745D01*
X146964437Y-87757028D01*
X147150001Y-87627095D01*
X147317095Y-87460001D01*
X147452635Y-87266430D01*
X147552503Y-87052263D01*
X147613663Y-86824008D01*
X147634259Y-86588600D01*
X147613663Y-86353192D01*
X147552503Y-86124937D01*
X147452635Y-85910771D01*
X147317095Y-85717199D01*
X147150001Y-85550105D01*
X146964439Y-85420173D01*
X146920816Y-85365598D01*
X146913622Y-85296100D01*
X146945145Y-85233745D01*
X146964437Y-85217028D01*
X147150001Y-85087095D01*
X147317095Y-84920001D01*
X147452635Y-84726430D01*
X147552503Y-84512263D01*
X147613663Y-84284008D01*
X147634259Y-84048600D01*
X147613663Y-83813192D01*
X147552503Y-83584937D01*
X147452635Y-83370771D01*
X147317095Y-83177199D01*
X147150001Y-83010105D01*
X146964002Y-82879867D01*
X146920380Y-82825292D01*
X146913187Y-82755793D01*
X146944709Y-82693439D01*
X146964005Y-82676719D01*
X147039973Y-82623525D01*
X146411133Y-81994686D01*
X146420915Y-81993280D01*
X146551700Y-81933552D01*
X146660361Y-81839398D01*
X146738093Y-81718444D01*
X146761676Y-81638124D01*
X147393525Y-82269973D01*
X147452200Y-82186176D01*
X147552030Y-81972092D01*
X147613169Y-81743918D01*
X147634703Y-81497793D01*
X147638842Y-81498155D01*
X147648427Y-81450455D01*
X147697041Y-81400270D01*
X147765069Y-81384334D01*
X147830913Y-81407707D01*
X147845872Y-81420462D01*
X148258381Y-81832971D01*
X148291866Y-81894294D01*
X148294700Y-81920652D01*
X148294700Y-108147547D01*
X148275015Y-108214586D01*
X148258381Y-108235228D01*
X147935428Y-108558181D01*
X147874105Y-108591666D01*
X147847747Y-108594500D01*
X141661452Y-108594500D01*
X141594413Y-108574815D01*
X141573771Y-108558181D01*
X141149219Y-108133628D01*
X141115734Y-108072305D01*
X141112900Y-108045947D01*
X141112900Y-99955543D01*
X141115164Y-99935039D01*
X141112961Y-99864912D01*
X141112900Y-99861018D01*
X141112900Y-99837341D01*
X141112900Y-99833450D01*
X141112398Y-99829483D01*
X141111481Y-99817827D01*
X141110110Y-99774173D01*
X141104518Y-99754926D01*
X141100574Y-99735885D01*
X141098064Y-99716008D01*
X141081979Y-99675383D01*
X141078208Y-99664368D01*
X141066018Y-99622410D01*
X141055814Y-99605155D01*
X141047261Y-99587695D01*
X141039886Y-99569069D01*
X141039886Y-99569068D01*
X141014208Y-99533725D01*
X141007801Y-99523971D01*
X141007770Y-99523918D01*
X140985570Y-99486380D01*
X140971406Y-99472216D01*
X140958767Y-99457417D01*
X140946995Y-99441213D01*
X140913341Y-99413373D01*
X140904699Y-99405509D01*
X139987202Y-98488011D01*
X139974306Y-98471913D01*
X139923175Y-98423898D01*
X139920378Y-98421187D01*
X139903627Y-98404436D01*
X139900871Y-98401680D01*
X139897690Y-98399212D01*
X139888822Y-98391637D01*
X139856982Y-98361738D01*
X139839424Y-98352085D01*
X139823164Y-98341404D01*
X139807336Y-98329127D01*
X139767251Y-98311780D01*
X139756761Y-98306641D01*
X139718491Y-98285602D01*
X139699091Y-98280621D01*
X139680684Y-98274319D01*
X139662297Y-98266362D01*
X139619158Y-98259529D01*
X139607724Y-98257161D01*
X139565419Y-98246300D01*
X139545384Y-98246300D01*
X139525986Y-98244773D01*
X139518562Y-98243597D01*
X139506205Y-98241640D01*
X139506204Y-98241640D01*
X139473151Y-98244764D01*
X139462725Y-98245750D01*
X139451056Y-98246300D01*
X136272299Y-98246300D01*
X136205260Y-98226615D01*
X136159505Y-98173811D01*
X136148299Y-98122300D01*
X136148299Y-97977239D01*
X136148299Y-97973928D01*
X136141891Y-97914317D01*
X136091596Y-97779469D01*
X136005346Y-97664254D01*
X135890131Y-97578004D01*
X135755283Y-97527709D01*
X135695673Y-97521300D01*
X135692350Y-97521300D01*
X133903239Y-97521300D01*
X133903220Y-97521300D01*
X133899928Y-97521301D01*
X133896648Y-97521653D01*
X133896640Y-97521654D01*
X133840315Y-97527709D01*
X133705469Y-97578004D01*
X133590254Y-97664254D01*
X133504004Y-97779468D01*
X133453710Y-97914315D01*
X133453709Y-97914317D01*
X133447300Y-97973927D01*
X133447300Y-97977248D01*
X133447300Y-97977249D01*
X133447300Y-99766360D01*
X133447300Y-99766378D01*
X133447301Y-99769672D01*
X133447653Y-99772952D01*
X133447654Y-99772959D01*
X133453709Y-99829284D01*
X133453824Y-99829592D01*
X133504004Y-99964131D01*
X133590254Y-100079346D01*
X133705469Y-100165596D01*
X133817707Y-100207458D01*
X133836882Y-100214610D01*
X133892816Y-100256481D01*
X133917233Y-100321946D01*
X133902381Y-100390219D01*
X133881231Y-100418473D01*
X133759303Y-100540401D01*
X133623765Y-100733970D01*
X133523897Y-100948136D01*
X133462736Y-101176392D01*
X133442140Y-101411800D01*
X133462736Y-101647207D01*
X133507509Y-101814301D01*
X133523897Y-101875463D01*
X133623765Y-102089630D01*
X133759305Y-102283201D01*
X133926399Y-102450295D01*
X134111960Y-102580226D01*
X134155583Y-102634802D01*
X134162776Y-102704301D01*
X134131254Y-102766655D01*
X134111959Y-102783375D01*
X133926395Y-102913308D01*
X133759305Y-103080398D01*
X133624149Y-103273423D01*
X133569572Y-103317048D01*
X133522574Y-103326300D01*
X132176853Y-103326300D01*
X132109814Y-103306615D01*
X132089172Y-103289981D01*
X127407819Y-98608627D01*
X127374334Y-98547304D01*
X127371500Y-98520946D01*
X127371500Y-75367452D01*
X127391185Y-75300413D01*
X127407819Y-75279771D01*
X130677171Y-72010419D01*
X130738494Y-71976934D01*
X130764852Y-71974100D01*
X142463373Y-71974100D01*
X142530412Y-71993785D01*
G37*
%TD.AperFunction*%
%TA.AperFunction,Conductor*%
G36*
X145093455Y-105035145D02*
G01*
X145110171Y-105054437D01*
X145240105Y-105240001D01*
X145407199Y-105407095D01*
X145592760Y-105537026D01*
X145636383Y-105591602D01*
X145643576Y-105661101D01*
X145612054Y-105723455D01*
X145592759Y-105740175D01*
X145407195Y-105870108D01*
X145240108Y-106037195D01*
X145240105Y-106037198D01*
X145240105Y-106037199D01*
X145163065Y-106147225D01*
X145109870Y-106223195D01*
X145055293Y-106266819D01*
X144985794Y-106274012D01*
X144923440Y-106242490D01*
X144906720Y-106223195D01*
X144853525Y-106147226D01*
X144853525Y-106147225D01*
X144221676Y-106779075D01*
X144198093Y-106698756D01*
X144120361Y-106577802D01*
X144011700Y-106483648D01*
X143880915Y-106423920D01*
X143871133Y-106422513D01*
X144499973Y-105793673D01*
X144499973Y-105793672D01*
X144424005Y-105740480D01*
X144380380Y-105685904D01*
X144373186Y-105616405D01*
X144404708Y-105554051D01*
X144423999Y-105537334D01*
X144610001Y-105407095D01*
X144777095Y-105240001D01*
X144907026Y-105054439D01*
X144961602Y-105010816D01*
X145031100Y-105003622D01*
X145093455Y-105035145D01*
G37*
%TD.AperFunction*%
%TA.AperFunction,Conductor*%
G36*
X145819107Y-99498444D02*
G01*
X145896839Y-99619398D01*
X146005500Y-99713552D01*
X146136285Y-99773280D01*
X146146066Y-99774686D01*
X145517225Y-100403525D01*
X145593194Y-100456719D01*
X145636819Y-100511296D01*
X145644013Y-100580794D01*
X145612490Y-100643149D01*
X145593195Y-100659869D01*
X145407195Y-100790108D01*
X145240105Y-100957198D01*
X145110175Y-101142759D01*
X145055598Y-101186384D01*
X144986100Y-101193578D01*
X144923745Y-101162055D01*
X144907025Y-101142759D01*
X144777094Y-100957198D01*
X144610001Y-100790105D01*
X144529832Y-100733970D01*
X144424439Y-100660173D01*
X144380816Y-100605598D01*
X144373622Y-100536100D01*
X144405145Y-100473745D01*
X144424437Y-100457028D01*
X144610001Y-100327095D01*
X144777095Y-100160001D01*
X144907332Y-99974003D01*
X144961907Y-99930380D01*
X145031405Y-99923186D01*
X145093760Y-99954709D01*
X145110480Y-99974005D01*
X145163673Y-100049973D01*
X145795523Y-99418123D01*
X145819107Y-99498444D01*
G37*
%TD.AperFunction*%
%TA.AperFunction,Conductor*%
G36*
X145093455Y-97415145D02*
G01*
X145110171Y-97434437D01*
X145240105Y-97620001D01*
X145407199Y-97787095D01*
X145593196Y-97917332D01*
X145636819Y-97971907D01*
X145644012Y-98041406D01*
X145612490Y-98103760D01*
X145593194Y-98120481D01*
X145517225Y-98173673D01*
X146146065Y-98802513D01*
X146136285Y-98803920D01*
X146005500Y-98863648D01*
X145896839Y-98957802D01*
X145819107Y-99078756D01*
X145795523Y-99159076D01*
X145163673Y-98527226D01*
X145110481Y-98603194D01*
X145055904Y-98646819D01*
X144986406Y-98654013D01*
X144924051Y-98622491D01*
X144907330Y-98603195D01*
X144777095Y-98417199D01*
X144610001Y-98250105D01*
X144424439Y-98120173D01*
X144380816Y-98065598D01*
X144373622Y-97996100D01*
X144405145Y-97933745D01*
X144424437Y-97917028D01*
X144610001Y-97787095D01*
X144777095Y-97620001D01*
X144907026Y-97434439D01*
X144961602Y-97390816D01*
X145031100Y-97383622D01*
X145093455Y-97415145D01*
G37*
%TD.AperFunction*%
%TA.AperFunction,Conductor*%
G36*
X145819107Y-94418444D02*
G01*
X145896839Y-94539398D01*
X146005500Y-94633552D01*
X146136285Y-94693280D01*
X146146066Y-94694686D01*
X145517225Y-95323525D01*
X145593194Y-95376719D01*
X145636819Y-95431296D01*
X145644013Y-95500794D01*
X145612490Y-95563149D01*
X145593195Y-95579869D01*
X145407195Y-95710108D01*
X145240105Y-95877198D01*
X145110175Y-96062759D01*
X145055598Y-96106384D01*
X144986100Y-96113578D01*
X144923745Y-96082055D01*
X144907025Y-96062759D01*
X144777094Y-95877198D01*
X144610001Y-95710105D01*
X144610000Y-95710105D01*
X144424439Y-95580173D01*
X144380816Y-95525598D01*
X144373622Y-95456100D01*
X144405145Y-95393745D01*
X144424437Y-95377028D01*
X144610001Y-95247095D01*
X144777095Y-95080001D01*
X144907332Y-94894003D01*
X144961907Y-94850380D01*
X145031405Y-94843186D01*
X145093760Y-94874709D01*
X145110480Y-94894005D01*
X145163673Y-94969973D01*
X145795522Y-94338123D01*
X145819107Y-94418444D01*
G37*
%TD.AperFunction*%
%TA.AperFunction,Conductor*%
G36*
X145093455Y-92335145D02*
G01*
X145110171Y-92354437D01*
X145240105Y-92540001D01*
X145407199Y-92707095D01*
X145593196Y-92837332D01*
X145636819Y-92891907D01*
X145644012Y-92961406D01*
X145612490Y-93023760D01*
X145593194Y-93040481D01*
X145517225Y-93093673D01*
X146146065Y-93722513D01*
X146136285Y-93723920D01*
X146005500Y-93783648D01*
X145896839Y-93877802D01*
X145819107Y-93998756D01*
X145795523Y-94079074D01*
X145163673Y-93447226D01*
X145110481Y-93523194D01*
X145055904Y-93566819D01*
X144986406Y-93574013D01*
X144924051Y-93542491D01*
X144907330Y-93523195D01*
X144777095Y-93337199D01*
X144610001Y-93170105D01*
X144424439Y-93040173D01*
X144380817Y-92985598D01*
X144373624Y-92916099D01*
X144405146Y-92853745D01*
X144424437Y-92837028D01*
X144610001Y-92707095D01*
X144777095Y-92540001D01*
X144907026Y-92354439D01*
X144961602Y-92310816D01*
X145031100Y-92303622D01*
X145093455Y-92335145D01*
G37*
%TD.AperFunction*%
%TA.AperFunction,Conductor*%
G36*
X144853525Y-89889972D02*
G01*
X144906719Y-89814005D01*
X144961296Y-89770380D01*
X145030794Y-89763186D01*
X145093149Y-89794709D01*
X145109865Y-89814000D01*
X145240105Y-90000001D01*
X145407199Y-90167095D01*
X145592760Y-90297026D01*
X145636383Y-90351602D01*
X145643576Y-90421101D01*
X145612054Y-90483455D01*
X145592759Y-90500175D01*
X145407195Y-90630108D01*
X145240105Y-90797198D01*
X145110175Y-90982759D01*
X145055598Y-91026384D01*
X144986100Y-91033578D01*
X144923745Y-91002055D01*
X144907025Y-90982759D01*
X144792931Y-90819815D01*
X144777095Y-90797199D01*
X144610001Y-90630105D01*
X144424002Y-90499867D01*
X144380380Y-90445292D01*
X144373187Y-90375793D01*
X144404709Y-90313439D01*
X144424005Y-90296719D01*
X144499973Y-90243525D01*
X143871133Y-89614686D01*
X143880915Y-89613280D01*
X144011700Y-89553552D01*
X144120361Y-89459398D01*
X144198093Y-89338444D01*
X144221677Y-89258123D01*
X144853525Y-89889972D01*
G37*
%TD.AperFunction*%
%TA.AperFunction,Conductor*%
G36*
X145093455Y-87255145D02*
G01*
X145110171Y-87274437D01*
X145240105Y-87460001D01*
X145407199Y-87627095D01*
X145592760Y-87757026D01*
X145636383Y-87811602D01*
X145643576Y-87881101D01*
X145612054Y-87943455D01*
X145592759Y-87960175D01*
X145407195Y-88090108D01*
X145240108Y-88257195D01*
X145240105Y-88257198D01*
X145240105Y-88257199D01*
X145163065Y-88367225D01*
X145109870Y-88443195D01*
X145055293Y-88486819D01*
X144985794Y-88494012D01*
X144923440Y-88462490D01*
X144906720Y-88443195D01*
X144853525Y-88367226D01*
X144853525Y-88367225D01*
X144221676Y-88999074D01*
X144198093Y-88918756D01*
X144120361Y-88797802D01*
X144011700Y-88703648D01*
X143880915Y-88643920D01*
X143871132Y-88642513D01*
X144499973Y-88013673D01*
X144499973Y-88013672D01*
X144424005Y-87960480D01*
X144380380Y-87905904D01*
X144373186Y-87836405D01*
X144404708Y-87774051D01*
X144423999Y-87757334D01*
X144610001Y-87627095D01*
X144777095Y-87460001D01*
X144907026Y-87274439D01*
X144961602Y-87230816D01*
X145031100Y-87223622D01*
X145093455Y-87255145D01*
G37*
%TD.AperFunction*%
%TA.AperFunction,Conductor*%
G36*
X145819107Y-81718444D02*
G01*
X145896839Y-81839398D01*
X146005500Y-81933552D01*
X146136285Y-81993280D01*
X146146066Y-81994686D01*
X145517225Y-82623525D01*
X145593194Y-82676719D01*
X145636819Y-82731296D01*
X145644013Y-82800794D01*
X145612490Y-82863149D01*
X145593195Y-82879869D01*
X145407195Y-83010108D01*
X145240105Y-83177198D01*
X145110175Y-83362759D01*
X145055598Y-83406384D01*
X144986100Y-83413578D01*
X144923745Y-83382055D01*
X144907025Y-83362759D01*
X144777094Y-83177198D01*
X144610004Y-83010108D01*
X144610001Y-83010105D01*
X144424439Y-82880173D01*
X144380817Y-82825598D01*
X144373624Y-82756099D01*
X144405146Y-82693745D01*
X144424437Y-82677028D01*
X144610001Y-82547095D01*
X144777095Y-82380001D01*
X144907332Y-82194003D01*
X144961907Y-82150380D01*
X145031405Y-82143186D01*
X145093760Y-82174709D01*
X145110480Y-82194005D01*
X145163673Y-82269973D01*
X145795523Y-81638123D01*
X145819107Y-81718444D01*
G37*
%TD.AperFunction*%
%TA.AperFunction,Conductor*%
G36*
X145093455Y-79635145D02*
G01*
X145110171Y-79654437D01*
X145240105Y-79840001D01*
X145407199Y-80007095D01*
X145593196Y-80137332D01*
X145636819Y-80191907D01*
X145644012Y-80261406D01*
X145612490Y-80323760D01*
X145593194Y-80340481D01*
X145517226Y-80393673D01*
X146146066Y-81022513D01*
X146136285Y-81023920D01*
X146005500Y-81083648D01*
X145896839Y-81177802D01*
X145819107Y-81298756D01*
X145795523Y-81379074D01*
X145163673Y-80747226D01*
X145110481Y-80823194D01*
X145055904Y-80866819D01*
X144986406Y-80874013D01*
X144924051Y-80842491D01*
X144907330Y-80823195D01*
X144777095Y-80637199D01*
X144610001Y-80470105D01*
X144424439Y-80340173D01*
X144380816Y-80285598D01*
X144373622Y-80216100D01*
X144405145Y-80153745D01*
X144424437Y-80137028D01*
X144610001Y-80007095D01*
X144777095Y-79840001D01*
X144907026Y-79654439D01*
X144961602Y-79610816D01*
X145031100Y-79603622D01*
X145093455Y-79635145D01*
G37*
%TD.AperFunction*%
%TA.AperFunction,Conductor*%
G36*
X145819107Y-74098444D02*
G01*
X145896839Y-74219398D01*
X146005500Y-74313552D01*
X146136285Y-74373280D01*
X146146066Y-74374686D01*
X145517225Y-75003525D01*
X145593194Y-75056719D01*
X145636819Y-75111296D01*
X145644013Y-75180794D01*
X145612490Y-75243149D01*
X145593195Y-75259869D01*
X145407195Y-75390108D01*
X145240105Y-75557198D01*
X145110175Y-75742759D01*
X145055598Y-75786384D01*
X144986100Y-75793578D01*
X144923745Y-75762055D01*
X144907025Y-75742759D01*
X144777094Y-75557198D01*
X144610001Y-75390105D01*
X144577649Y-75367452D01*
X144424439Y-75260173D01*
X144380816Y-75205598D01*
X144373622Y-75136100D01*
X144405145Y-75073745D01*
X144424437Y-75057028D01*
X144610001Y-74927095D01*
X144777095Y-74760001D01*
X144907332Y-74574003D01*
X144961907Y-74530380D01*
X145031405Y-74523186D01*
X145093760Y-74554709D01*
X145110480Y-74574005D01*
X145163673Y-74649973D01*
X145795523Y-74018123D01*
X145819107Y-74098444D01*
G37*
%TD.AperFunction*%
%TA.AperFunction,Conductor*%
G36*
X145093455Y-72015145D02*
G01*
X145110171Y-72034437D01*
X145240105Y-72220001D01*
X145407199Y-72387095D01*
X145593196Y-72517332D01*
X145636819Y-72571907D01*
X145644012Y-72641406D01*
X145612490Y-72703760D01*
X145593194Y-72720481D01*
X145517226Y-72773673D01*
X146146066Y-73402513D01*
X146136285Y-73403920D01*
X146005500Y-73463648D01*
X145896839Y-73557802D01*
X145819107Y-73678756D01*
X145795523Y-73759076D01*
X145163673Y-73127226D01*
X145110481Y-73203194D01*
X145055904Y-73246819D01*
X144986406Y-73254013D01*
X144924051Y-73222491D01*
X144907330Y-73203195D01*
X144777095Y-73017199D01*
X144610001Y-72850105D01*
X144424439Y-72720173D01*
X144380817Y-72665598D01*
X144373624Y-72596099D01*
X144405146Y-72533745D01*
X144424437Y-72517028D01*
X144610001Y-72387095D01*
X144777095Y-72220001D01*
X144907026Y-72034439D01*
X144961602Y-71990816D01*
X145031100Y-71983622D01*
X145093455Y-72015145D01*
G37*
%TD.AperFunction*%
%TA.AperFunction,Conductor*%
G36*
X144853525Y-69569973D02*
G01*
X144906719Y-69494005D01*
X144961296Y-69450380D01*
X145030794Y-69443186D01*
X145093149Y-69474709D01*
X145109865Y-69494000D01*
X145240105Y-69680001D01*
X145407199Y-69847095D01*
X145592760Y-69977026D01*
X145636383Y-70031602D01*
X145643576Y-70101101D01*
X145612054Y-70163455D01*
X145592759Y-70180175D01*
X145407195Y-70310108D01*
X145240105Y-70477198D01*
X145110175Y-70662759D01*
X145055598Y-70706384D01*
X144986100Y-70713578D01*
X144923745Y-70682055D01*
X144907025Y-70662759D01*
X144777094Y-70477198D01*
X144610004Y-70310108D01*
X144610003Y-70310108D01*
X144610001Y-70310105D01*
X144424002Y-70179867D01*
X144380380Y-70125292D01*
X144373187Y-70055793D01*
X144404709Y-69993439D01*
X144424005Y-69976719D01*
X144499973Y-69923525D01*
X143871133Y-69294686D01*
X143880915Y-69293280D01*
X144011700Y-69233552D01*
X144120361Y-69139398D01*
X144198093Y-69018444D01*
X144221676Y-68938124D01*
X144853525Y-69569973D01*
G37*
%TD.AperFunction*%
%TA.AperFunction,Conductor*%
G36*
X145093455Y-66935145D02*
G01*
X145110171Y-66954437D01*
X145240105Y-67140001D01*
X145407199Y-67307095D01*
X145592760Y-67437026D01*
X145636383Y-67491602D01*
X145643576Y-67561101D01*
X145612054Y-67623455D01*
X145592758Y-67640175D01*
X145449987Y-67740145D01*
X145407195Y-67770108D01*
X145240108Y-67937195D01*
X145240105Y-67937198D01*
X145240105Y-67937199D01*
X145163065Y-68047225D01*
X145109870Y-68123195D01*
X145055293Y-68166819D01*
X144985794Y-68174012D01*
X144923440Y-68142490D01*
X144906720Y-68123195D01*
X144853525Y-68047226D01*
X144853525Y-68047225D01*
X144221676Y-68679075D01*
X144198093Y-68598756D01*
X144120361Y-68477802D01*
X144011700Y-68383648D01*
X143880915Y-68323920D01*
X143871133Y-68322513D01*
X144499973Y-67693673D01*
X144499973Y-67693672D01*
X144424005Y-67640480D01*
X144380380Y-67585904D01*
X144373186Y-67516405D01*
X144404708Y-67454051D01*
X144423999Y-67437334D01*
X144610001Y-67307095D01*
X144777095Y-67140001D01*
X144907026Y-66954439D01*
X144961602Y-66910816D01*
X145031100Y-66903622D01*
X145093455Y-66935145D01*
G37*
%TD.AperFunction*%
%TA.AperFunction,Conductor*%
G36*
X145819107Y-63938444D02*
G01*
X145896839Y-64059398D01*
X146005500Y-64153552D01*
X146136285Y-64213280D01*
X146146066Y-64214686D01*
X145517225Y-64843525D01*
X145593194Y-64896719D01*
X145636819Y-64951296D01*
X145644013Y-65020794D01*
X145612490Y-65083149D01*
X145593195Y-65099869D01*
X145407195Y-65230108D01*
X145240105Y-65397198D01*
X145110175Y-65582759D01*
X145055598Y-65626384D01*
X144986100Y-65633578D01*
X144923745Y-65602055D01*
X144907025Y-65582759D01*
X144777094Y-65397198D01*
X144610001Y-65230105D01*
X144541444Y-65182101D01*
X144424439Y-65100173D01*
X144380816Y-65045598D01*
X144373622Y-64976100D01*
X144405145Y-64913745D01*
X144424437Y-64897028D01*
X144610001Y-64767095D01*
X144777095Y-64600001D01*
X144907332Y-64414003D01*
X144961907Y-64370380D01*
X145031405Y-64363186D01*
X145093760Y-64394709D01*
X145110480Y-64414005D01*
X145163673Y-64489973D01*
X145795523Y-63858123D01*
X145819107Y-63938444D01*
G37*
%TD.AperFunction*%
%TA.AperFunction,Conductor*%
G36*
X145093455Y-61855145D02*
G01*
X145110171Y-61874437D01*
X145240105Y-62060001D01*
X145407199Y-62227095D01*
X145593196Y-62357332D01*
X145636819Y-62411907D01*
X145644012Y-62481406D01*
X145612490Y-62543760D01*
X145593194Y-62560481D01*
X145517225Y-62613673D01*
X146146066Y-63242513D01*
X146136285Y-63243920D01*
X146005500Y-63303648D01*
X145896839Y-63397802D01*
X145819107Y-63518756D01*
X145795523Y-63599076D01*
X145163673Y-62967226D01*
X145110481Y-63043194D01*
X145055904Y-63086819D01*
X144986406Y-63094013D01*
X144924051Y-63062491D01*
X144907330Y-63043195D01*
X144777095Y-62857199D01*
X144610001Y-62690105D01*
X144424439Y-62560173D01*
X144380817Y-62505598D01*
X144373624Y-62436099D01*
X144405146Y-62373745D01*
X144424437Y-62357028D01*
X144610001Y-62227095D01*
X144777095Y-62060001D01*
X144907026Y-61874439D01*
X144961602Y-61830816D01*
X145031100Y-61823622D01*
X145093455Y-61855145D01*
G37*
%TD.AperFunction*%
%TA.AperFunction,Conductor*%
G36*
X145374787Y-56931585D02*
G01*
X145395429Y-56948219D01*
X145616781Y-57169571D01*
X145650266Y-57230894D01*
X145653100Y-57257252D01*
X145653100Y-57373373D01*
X145633415Y-57440412D01*
X145600224Y-57474948D01*
X145407199Y-57610105D01*
X145285273Y-57732031D01*
X145223950Y-57765515D01*
X145154258Y-57760531D01*
X145098325Y-57718659D01*
X145081410Y-57687682D01*
X145058764Y-57626965D01*
X145032396Y-57556269D01*
X144946146Y-57441054D01*
X144830931Y-57354804D01*
X144696083Y-57304509D01*
X144636473Y-57298100D01*
X144633150Y-57298100D01*
X142844039Y-57298100D01*
X142844020Y-57298100D01*
X142840728Y-57298101D01*
X142837448Y-57298453D01*
X142837440Y-57298454D01*
X142781115Y-57304509D01*
X142646269Y-57354804D01*
X142531054Y-57441054D01*
X142444804Y-57556268D01*
X142444803Y-57556269D01*
X142444804Y-57556269D01*
X142394509Y-57691117D01*
X142388100Y-57750727D01*
X142388100Y-57754048D01*
X142388100Y-57754049D01*
X142388100Y-57899100D01*
X142368415Y-57966139D01*
X142315611Y-58011894D01*
X142264100Y-58023100D01*
X137014141Y-58023100D01*
X136993637Y-58020836D01*
X136923545Y-58023039D01*
X136919651Y-58023100D01*
X136892050Y-58023100D01*
X136888199Y-58023586D01*
X136888168Y-58023588D01*
X136888040Y-58023605D01*
X136876428Y-58024518D01*
X136832768Y-58025890D01*
X136813528Y-58031480D01*
X136794481Y-58035425D01*
X136774609Y-58037935D01*
X136733999Y-58054013D01*
X136722954Y-58057794D01*
X136681010Y-58069981D01*
X136663765Y-58080179D01*
X136646304Y-58088733D01*
X136627667Y-58096112D01*
X136592331Y-58121785D01*
X136582574Y-58128195D01*
X136544980Y-58150429D01*
X136530813Y-58164596D01*
X136516024Y-58177226D01*
X136499813Y-58189004D01*
X136471972Y-58222658D01*
X136464111Y-58231297D01*
X131681028Y-63014379D01*
X131619705Y-63047864D01*
X131550013Y-63042880D01*
X131494080Y-63001008D01*
X131470057Y-62939950D01*
X131468291Y-62923517D01*
X131417996Y-62788669D01*
X131331746Y-62673454D01*
X131216531Y-62587204D01*
X131081683Y-62536909D01*
X131022073Y-62530500D01*
X131018751Y-62530500D01*
X131011510Y-62530500D01*
X130944471Y-62510815D01*
X130923829Y-62494181D01*
X130256733Y-61827086D01*
X130266515Y-61825680D01*
X130397300Y-61765952D01*
X130505961Y-61671798D01*
X130583693Y-61550844D01*
X130607276Y-61470524D01*
X131239125Y-62102373D01*
X131297800Y-62018576D01*
X131397630Y-61804492D01*
X131458769Y-61576318D01*
X131479357Y-61340999D01*
X131458769Y-61105681D01*
X131397630Y-60877507D01*
X131297799Y-60663421D01*
X131239126Y-60579626D01*
X131239125Y-60579625D01*
X130607276Y-61211474D01*
X130583693Y-61131156D01*
X130505961Y-61010202D01*
X130397300Y-60916048D01*
X130266515Y-60856320D01*
X130256733Y-60854913D01*
X130885573Y-60226073D01*
X130885573Y-60226072D01*
X130809605Y-60172880D01*
X130765980Y-60118304D01*
X130758786Y-60048805D01*
X130790308Y-59986451D01*
X130809599Y-59969734D01*
X130995601Y-59839495D01*
X131162695Y-59672401D01*
X131298235Y-59478830D01*
X131398103Y-59264663D01*
X131459263Y-59036408D01*
X131479859Y-58801000D01*
X131459263Y-58565592D01*
X131432343Y-58465125D01*
X131434006Y-58395276D01*
X131464435Y-58345353D01*
X132861571Y-56948219D01*
X132922895Y-56914734D01*
X132949253Y-56911900D01*
X145307748Y-56911900D01*
X145374787Y-56931585D01*
G37*
%TD.AperFunction*%
%TA.AperFunction,Conductor*%
G36*
X152215539Y-54426985D02*
G01*
X152261294Y-54479789D01*
X152272500Y-54531300D01*
X152272500Y-110898900D01*
X152252815Y-110965939D01*
X152200011Y-111011694D01*
X152148500Y-111022900D01*
X124228900Y-111022900D01*
X124161861Y-111003215D01*
X124116106Y-110950411D01*
X124104900Y-110898900D01*
X124104900Y-75037195D01*
X126115839Y-75037195D01*
X126119949Y-75080671D01*
X126120499Y-75092339D01*
X126120499Y-98748656D01*
X126118235Y-98769163D01*
X126120439Y-98839272D01*
X126120500Y-98843167D01*
X126120500Y-98870750D01*
X126120988Y-98874619D01*
X126120989Y-98874625D01*
X126121004Y-98874743D01*
X126121918Y-98886367D01*
X126123290Y-98930026D01*
X126128879Y-98949260D01*
X126132825Y-98968316D01*
X126135335Y-98988192D01*
X126151414Y-99028804D01*
X126155197Y-99039851D01*
X126167382Y-99081791D01*
X126177580Y-99099035D01*
X126186136Y-99116500D01*
X126193514Y-99135132D01*
X126193515Y-99135133D01*
X126219180Y-99170459D01*
X126225593Y-99180222D01*
X126247826Y-99217816D01*
X126247829Y-99217819D01*
X126247830Y-99217820D01*
X126261995Y-99231985D01*
X126274627Y-99246775D01*
X126286406Y-99262987D01*
X126320058Y-99290826D01*
X126328699Y-99298689D01*
X131365596Y-104335587D01*
X131378496Y-104351688D01*
X131429623Y-104399700D01*
X131432420Y-104402411D01*
X131451929Y-104421920D01*
X131455109Y-104424387D01*
X131463971Y-104431955D01*
X131495818Y-104461862D01*
X131513370Y-104471511D01*
X131529638Y-104482197D01*
X131545464Y-104494473D01*
X131585546Y-104511817D01*
X131596033Y-104516955D01*
X131634307Y-104537997D01*
X131642810Y-104540179D01*
X131653708Y-104542978D01*
X131672113Y-104549278D01*
X131690504Y-104557237D01*
X131733650Y-104564070D01*
X131745068Y-104566435D01*
X131787381Y-104577300D01*
X131807416Y-104577300D01*
X131826815Y-104578827D01*
X131846596Y-104581960D01*
X131890074Y-104577850D01*
X131901744Y-104577300D01*
X133522573Y-104577300D01*
X133589612Y-104596985D01*
X133624145Y-104630173D01*
X133759305Y-104823201D01*
X133926399Y-104990295D01*
X134119970Y-105125835D01*
X134334137Y-105225703D01*
X134562392Y-105286863D01*
X134797800Y-105307459D01*
X135033208Y-105286863D01*
X135261463Y-105225703D01*
X135475630Y-105125835D01*
X135669201Y-104990295D01*
X135836295Y-104823201D01*
X135971835Y-104629630D01*
X136071703Y-104415463D01*
X136132863Y-104187208D01*
X136153459Y-103951800D01*
X136132863Y-103716392D01*
X136071703Y-103488137D01*
X135971835Y-103273971D01*
X135836295Y-103080399D01*
X135669201Y-102913305D01*
X135483639Y-102783373D01*
X135440016Y-102728798D01*
X135432822Y-102659300D01*
X135464345Y-102596945D01*
X135483637Y-102580228D01*
X135669201Y-102450295D01*
X135836295Y-102283201D01*
X135971835Y-102089630D01*
X136071703Y-101875463D01*
X136132863Y-101647208D01*
X136153459Y-101411800D01*
X136132863Y-101176392D01*
X136071703Y-100948137D01*
X135971835Y-100733971D01*
X135836295Y-100540399D01*
X135714369Y-100418473D01*
X135680884Y-100357150D01*
X135685868Y-100287458D01*
X135727740Y-100231525D01*
X135758715Y-100214610D01*
X135890131Y-100165596D01*
X136005346Y-100079346D01*
X136091596Y-99964131D01*
X136141891Y-99829283D01*
X136148300Y-99769673D01*
X136148300Y-99621300D01*
X136167985Y-99554261D01*
X136220789Y-99508506D01*
X136272300Y-99497300D01*
X139175948Y-99497300D01*
X139242987Y-99516985D01*
X139263629Y-99533619D01*
X139825581Y-100095570D01*
X139859066Y-100156893D01*
X139861900Y-100183251D01*
X139861900Y-108273656D01*
X139859635Y-108294166D01*
X139861839Y-108364272D01*
X139861900Y-108368167D01*
X139861900Y-108395750D01*
X139862388Y-108399619D01*
X139862389Y-108399625D01*
X139862404Y-108399743D01*
X139863318Y-108411367D01*
X139864690Y-108455026D01*
X139870279Y-108474260D01*
X139874225Y-108493316D01*
X139876735Y-108513192D01*
X139892814Y-108553804D01*
X139896597Y-108564851D01*
X139908782Y-108606791D01*
X139918980Y-108624035D01*
X139927536Y-108641500D01*
X139934914Y-108660132D01*
X139942583Y-108670688D01*
X139960580Y-108695459D01*
X139966993Y-108705222D01*
X139989226Y-108742816D01*
X139989229Y-108742819D01*
X139989230Y-108742820D01*
X140003395Y-108756985D01*
X140016027Y-108771775D01*
X140027806Y-108787987D01*
X140061458Y-108815826D01*
X140070099Y-108823689D01*
X140850196Y-109603787D01*
X140863096Y-109619888D01*
X140914223Y-109667900D01*
X140917020Y-109670611D01*
X140936529Y-109690120D01*
X140939709Y-109692587D01*
X140948571Y-109700155D01*
X140980418Y-109730062D01*
X140997972Y-109739712D01*
X141014236Y-109750396D01*
X141025972Y-109759499D01*
X141030064Y-109762673D01*
X141054909Y-109773424D01*
X141070152Y-109780021D01*
X141080631Y-109785154D01*
X141118908Y-109806197D01*
X141138306Y-109811177D01*
X141156708Y-109817477D01*
X141175104Y-109825438D01*
X141218261Y-109832273D01*
X141229664Y-109834634D01*
X141271981Y-109845500D01*
X141292016Y-109845500D01*
X141311413Y-109847026D01*
X141331196Y-109850160D01*
X141374674Y-109846050D01*
X141386344Y-109845500D01*
X148075456Y-109845500D01*
X148095962Y-109847764D01*
X148098865Y-109847672D01*
X148098867Y-109847673D01*
X148166072Y-109845561D01*
X148169968Y-109845500D01*
X148193648Y-109845500D01*
X148197550Y-109845500D01*
X148201513Y-109844999D01*
X148213162Y-109844080D01*
X148256827Y-109842709D01*
X148276059Y-109837120D01*
X148295118Y-109833174D01*
X148302291Y-109832268D01*
X148314992Y-109830664D01*
X148355607Y-109814582D01*
X148366644Y-109810803D01*
X148408590Y-109798618D01*
X148425829Y-109788422D01*
X148443302Y-109779862D01*
X148461932Y-109772486D01*
X148497264Y-109746814D01*
X148507030Y-109740400D01*
X148544618Y-109718171D01*
X148544617Y-109718171D01*
X148544620Y-109718170D01*
X148558785Y-109704004D01*
X148573573Y-109691373D01*
X148589787Y-109679594D01*
X148617638Y-109645926D01*
X148625479Y-109637309D01*
X149303986Y-108958802D01*
X149320086Y-108945905D01*
X149322074Y-108943787D01*
X149322077Y-108943786D01*
X149368164Y-108894707D01*
X149370749Y-108892039D01*
X149390320Y-108872470D01*
X149392765Y-108869316D01*
X149400354Y-108860429D01*
X149430262Y-108828582D01*
X149439913Y-108811026D01*
X149450593Y-108794767D01*
X149462874Y-108778936D01*
X149480218Y-108738851D01*
X149485360Y-108728356D01*
X149506397Y-108690092D01*
X149511378Y-108670688D01*
X149517680Y-108652283D01*
X149525638Y-108633895D01*
X149532470Y-108590748D01*
X149534839Y-108579316D01*
X149545700Y-108537020D01*
X149545700Y-108516983D01*
X149547227Y-108497584D01*
X149547903Y-108493316D01*
X149550360Y-108477804D01*
X149546250Y-108434324D01*
X149545700Y-108422655D01*
X149545700Y-81692943D01*
X149547964Y-81672439D01*
X149545761Y-81602312D01*
X149545700Y-81598418D01*
X149545700Y-81574741D01*
X149545700Y-81570850D01*
X149545198Y-81566883D01*
X149544281Y-81555227D01*
X149542910Y-81511573D01*
X149537318Y-81492326D01*
X149533374Y-81473285D01*
X149530864Y-81453408D01*
X149514779Y-81412783D01*
X149511008Y-81401768D01*
X149498818Y-81359810D01*
X149488614Y-81342555D01*
X149480061Y-81325095D01*
X149472686Y-81306469D01*
X149472686Y-81306468D01*
X149447008Y-81271125D01*
X149440601Y-81261371D01*
X149418369Y-81223779D01*
X149404206Y-81209616D01*
X149391567Y-81194817D01*
X149379795Y-81178613D01*
X149346141Y-81150773D01*
X149337499Y-81142909D01*
X147618837Y-79424247D01*
X147585352Y-79362924D01*
X147586743Y-79304472D01*
X147613663Y-79204008D01*
X147634259Y-78968600D01*
X147626594Y-78880996D01*
X147613663Y-78733192D01*
X147607719Y-78711007D01*
X147552503Y-78504937D01*
X147452635Y-78290771D01*
X147317095Y-78097199D01*
X147150001Y-77930105D01*
X146964439Y-77800173D01*
X146920816Y-77745598D01*
X146913622Y-77676100D01*
X146945145Y-77613745D01*
X146964437Y-77597028D01*
X147150001Y-77467095D01*
X147317095Y-77300001D01*
X147452635Y-77106430D01*
X147552503Y-76892263D01*
X147613663Y-76664008D01*
X147634259Y-76428600D01*
X147613663Y-76193192D01*
X147552503Y-75964937D01*
X147452635Y-75750771D01*
X147317095Y-75557199D01*
X147150001Y-75390105D01*
X146964002Y-75259867D01*
X146920380Y-75205292D01*
X146913187Y-75135793D01*
X146944709Y-75073439D01*
X146964005Y-75056719D01*
X147039973Y-75003525D01*
X146411133Y-74374686D01*
X146420915Y-74373280D01*
X146551700Y-74313552D01*
X146660361Y-74219398D01*
X146738093Y-74098444D01*
X146761677Y-74018123D01*
X147393525Y-74649972D01*
X147452200Y-74566176D01*
X147552030Y-74352092D01*
X147613169Y-74123918D01*
X147633757Y-73888600D01*
X147613169Y-73653281D01*
X147552030Y-73425107D01*
X147452199Y-73211021D01*
X147393526Y-73127226D01*
X147393525Y-73127225D01*
X146761676Y-73759074D01*
X146738093Y-73678756D01*
X146660361Y-73557802D01*
X146551700Y-73463648D01*
X146420915Y-73403920D01*
X146411133Y-73402513D01*
X147039973Y-72773673D01*
X147039973Y-72773672D01*
X146964005Y-72720480D01*
X146920380Y-72665904D01*
X146913186Y-72596405D01*
X146944708Y-72534051D01*
X146963999Y-72517334D01*
X147150001Y-72387095D01*
X147317095Y-72220001D01*
X147452635Y-72026430D01*
X147552503Y-71812263D01*
X147613663Y-71584008D01*
X147634259Y-71348600D01*
X147613663Y-71113192D01*
X147552503Y-70884937D01*
X147452635Y-70670771D01*
X147317095Y-70477199D01*
X147150001Y-70310105D01*
X146964439Y-70180173D01*
X146920816Y-70125598D01*
X146913622Y-70056100D01*
X146945145Y-69993745D01*
X146964437Y-69977028D01*
X147150001Y-69847095D01*
X147317095Y-69680001D01*
X147452635Y-69486430D01*
X147552503Y-69272263D01*
X147613663Y-69044008D01*
X147634259Y-68808600D01*
X147613663Y-68573192D01*
X147552503Y-68344937D01*
X147452635Y-68130771D01*
X147317095Y-67937199D01*
X147150001Y-67770105D01*
X146964439Y-67640173D01*
X146920816Y-67585598D01*
X146913622Y-67516100D01*
X146945145Y-67453745D01*
X146964437Y-67437028D01*
X147150001Y-67307095D01*
X147317095Y-67140001D01*
X147452635Y-66946430D01*
X147552503Y-66732263D01*
X147613663Y-66504008D01*
X147634259Y-66268600D01*
X147613663Y-66033192D01*
X147552503Y-65804937D01*
X147452635Y-65590771D01*
X147317095Y-65397199D01*
X147150001Y-65230105D01*
X146964002Y-65099867D01*
X146920380Y-65045292D01*
X146913187Y-64975793D01*
X146944709Y-64913439D01*
X146964005Y-64896719D01*
X147039973Y-64843525D01*
X146411133Y-64214686D01*
X146420915Y-64213280D01*
X146551700Y-64153552D01*
X146660361Y-64059398D01*
X146738093Y-63938444D01*
X146761676Y-63858124D01*
X147393525Y-64489973D01*
X147452200Y-64406176D01*
X147552030Y-64192092D01*
X147613169Y-63963918D01*
X147633757Y-63728599D01*
X147613169Y-63493281D01*
X147552030Y-63265107D01*
X147452199Y-63051021D01*
X147393526Y-62967226D01*
X147393525Y-62967225D01*
X146761676Y-63599075D01*
X146738093Y-63518756D01*
X146660361Y-63397802D01*
X146551700Y-63303648D01*
X146420915Y-63243920D01*
X146411131Y-63242513D01*
X147039973Y-62613673D01*
X147039973Y-62613672D01*
X146964005Y-62560480D01*
X146920380Y-62505904D01*
X146913186Y-62436405D01*
X146944708Y-62374051D01*
X146963999Y-62357334D01*
X147150001Y-62227095D01*
X147317095Y-62060001D01*
X147452635Y-61866430D01*
X147552503Y-61652263D01*
X147613663Y-61424008D01*
X147634259Y-61188600D01*
X147613663Y-60953192D01*
X147552503Y-60724937D01*
X147452635Y-60510771D01*
X147317095Y-60317199D01*
X147150001Y-60150105D01*
X146964439Y-60020173D01*
X146920817Y-59965598D01*
X146913624Y-59896099D01*
X146945146Y-59833745D01*
X146964437Y-59817028D01*
X147150001Y-59687095D01*
X147317095Y-59520001D01*
X147452635Y-59326430D01*
X147552503Y-59112263D01*
X147613663Y-58884008D01*
X147634259Y-58648600D01*
X147613663Y-58413192D01*
X147552503Y-58184937D01*
X147452635Y-57970771D01*
X147317095Y-57777199D01*
X147150001Y-57610105D01*
X146956974Y-57474946D01*
X146913352Y-57420371D01*
X146904100Y-57373373D01*
X146904100Y-57029543D01*
X146906364Y-57009039D01*
X146904161Y-56938912D01*
X146904100Y-56935018D01*
X146904100Y-56911341D01*
X146904100Y-56907450D01*
X146903598Y-56903483D01*
X146902681Y-56891827D01*
X146901310Y-56848173D01*
X146895718Y-56828926D01*
X146891774Y-56809885D01*
X146889264Y-56790008D01*
X146873179Y-56749383D01*
X146869408Y-56738368D01*
X146857218Y-56696410D01*
X146847014Y-56679155D01*
X146838461Y-56661695D01*
X146831086Y-56643069D01*
X146831086Y-56643068D01*
X146805408Y-56607725D01*
X146799001Y-56597971D01*
X146776769Y-56560379D01*
X146762606Y-56546216D01*
X146749967Y-56531417D01*
X146738195Y-56515213D01*
X146704541Y-56487373D01*
X146695899Y-56479509D01*
X146119002Y-55902611D01*
X146106106Y-55886513D01*
X146054975Y-55838498D01*
X146052178Y-55835787D01*
X146035427Y-55819036D01*
X146032671Y-55816280D01*
X146029490Y-55813812D01*
X146020622Y-55806237D01*
X145988782Y-55776338D01*
X145971224Y-55766685D01*
X145954964Y-55756004D01*
X145939136Y-55743727D01*
X145899051Y-55726380D01*
X145888561Y-55721241D01*
X145850291Y-55700202D01*
X145830891Y-55695221D01*
X145812484Y-55688919D01*
X145794097Y-55680962D01*
X145750958Y-55674129D01*
X145739524Y-55671761D01*
X145697219Y-55660900D01*
X145677184Y-55660900D01*
X145657786Y-55659373D01*
X145650362Y-55658197D01*
X145638005Y-55656240D01*
X145638004Y-55656240D01*
X145611684Y-55658728D01*
X145594525Y-55660350D01*
X145582856Y-55660900D01*
X132721540Y-55660900D01*
X132701036Y-55658636D01*
X132630944Y-55660839D01*
X132627050Y-55660900D01*
X132599450Y-55660900D01*
X132595589Y-55661387D01*
X132595578Y-55661388D01*
X132595445Y-55661405D01*
X132583829Y-55662318D01*
X132540168Y-55663690D01*
X132520929Y-55669280D01*
X132501880Y-55673225D01*
X132482008Y-55675735D01*
X132441393Y-55691815D01*
X132430349Y-55695596D01*
X132388411Y-55707782D01*
X132371164Y-55717981D01*
X132353700Y-55726536D01*
X132335067Y-55733914D01*
X132299726Y-55759589D01*
X132289968Y-55765999D01*
X132252379Y-55788229D01*
X132238210Y-55802398D01*
X132223422Y-55815028D01*
X132207213Y-55826805D01*
X132179372Y-55860458D01*
X132171511Y-55869096D01*
X130579846Y-57460761D01*
X130518523Y-57494246D01*
X130460073Y-57492855D01*
X130359608Y-57465936D01*
X130124199Y-57445340D01*
X129888792Y-57465936D01*
X129660536Y-57527097D01*
X129446370Y-57626965D01*
X129252798Y-57762505D01*
X129085705Y-57929598D01*
X128950165Y-58123170D01*
X128850297Y-58337336D01*
X128789136Y-58565592D01*
X128768540Y-58801000D01*
X128789136Y-59036407D01*
X128809462Y-59112263D01*
X128850297Y-59264663D01*
X128950165Y-59478830D01*
X129085705Y-59672401D01*
X129252799Y-59839495D01*
X129438796Y-59969732D01*
X129482419Y-60024307D01*
X129489612Y-60093806D01*
X129458090Y-60156160D01*
X129438794Y-60172881D01*
X129362826Y-60226073D01*
X129991666Y-60854913D01*
X129981885Y-60856320D01*
X129851100Y-60916048D01*
X129742439Y-61010202D01*
X129664707Y-61131156D01*
X129641123Y-61211475D01*
X129009273Y-60579625D01*
X129009272Y-60579625D01*
X128950599Y-60663422D01*
X128850769Y-60877507D01*
X128789630Y-61105681D01*
X128769042Y-61340999D01*
X128789630Y-61576318D01*
X128850769Y-61804492D01*
X128950600Y-62018580D01*
X129009273Y-62102373D01*
X129641123Y-61470523D01*
X129664707Y-61550844D01*
X129742439Y-61671798D01*
X129851100Y-61765952D01*
X129981885Y-61825680D01*
X129991666Y-61827086D01*
X129324569Y-62494181D01*
X129263246Y-62527666D01*
X129236900Y-62530500D01*
X129229645Y-62530500D01*
X129229626Y-62530500D01*
X129226328Y-62530501D01*
X129223048Y-62530853D01*
X129223040Y-62530854D01*
X129166715Y-62536909D01*
X129031869Y-62587204D01*
X128916654Y-62673454D01*
X128830404Y-62788668D01*
X128780109Y-62923516D01*
X128775410Y-62967226D01*
X128773700Y-62983127D01*
X128773700Y-62986448D01*
X128773700Y-62986449D01*
X128773700Y-64775560D01*
X128773700Y-64775578D01*
X128773701Y-64778872D01*
X128774053Y-64782152D01*
X128774054Y-64782159D01*
X128780109Y-64838484D01*
X128801830Y-64896719D01*
X128830404Y-64973331D01*
X128916654Y-65088546D01*
X129031869Y-65174796D01*
X129166717Y-65225091D01*
X129226327Y-65231500D01*
X131022072Y-65231499D01*
X131081683Y-65225091D01*
X131216531Y-65174796D01*
X131331746Y-65088546D01*
X131417996Y-64973331D01*
X131468291Y-64838483D01*
X131474700Y-64778873D01*
X131474700Y-64630499D01*
X131494385Y-64563461D01*
X131547189Y-64517706D01*
X131598700Y-64506500D01*
X131616256Y-64506500D01*
X131636762Y-64508764D01*
X131639665Y-64508672D01*
X131639667Y-64508673D01*
X131706872Y-64506561D01*
X131710768Y-64506500D01*
X131734448Y-64506500D01*
X131738350Y-64506500D01*
X131742313Y-64505999D01*
X131753962Y-64505080D01*
X131797627Y-64503709D01*
X131816859Y-64498120D01*
X131835918Y-64494174D01*
X131842196Y-64493381D01*
X131855792Y-64491664D01*
X131896407Y-64475582D01*
X131907444Y-64471803D01*
X131949390Y-64459618D01*
X131966629Y-64449422D01*
X131984102Y-64440862D01*
X132002732Y-64433486D01*
X132038064Y-64407814D01*
X132047830Y-64401400D01*
X132085418Y-64379171D01*
X132085417Y-64379171D01*
X132085420Y-64379170D01*
X132099585Y-64365004D01*
X132114373Y-64352373D01*
X132130587Y-64340594D01*
X132158438Y-64306926D01*
X132166279Y-64298309D01*
X137154171Y-59310419D01*
X137215495Y-59276934D01*
X137241853Y-59274100D01*
X142264101Y-59274100D01*
X142331140Y-59293785D01*
X142376895Y-59346589D01*
X142388101Y-59398099D01*
X142388101Y-59546472D01*
X142388453Y-59549752D01*
X142388454Y-59549759D01*
X142394509Y-59606084D01*
X142419244Y-59672401D01*
X142444804Y-59740931D01*
X142531054Y-59856146D01*
X142646269Y-59942396D01*
X142733779Y-59975035D01*
X142777682Y-59991410D01*
X142833616Y-60033281D01*
X142858033Y-60098746D01*
X142843181Y-60167019D01*
X142822031Y-60195273D01*
X142700103Y-60317201D01*
X142564565Y-60510770D01*
X142464697Y-60724936D01*
X142403536Y-60953192D01*
X142382940Y-61188599D01*
X142403536Y-61424008D01*
X142430455Y-61524473D01*
X142428792Y-61594322D01*
X142398361Y-61644246D01*
X138171828Y-65870781D01*
X138110505Y-65904266D01*
X138084147Y-65907100D01*
X136272299Y-65907100D01*
X136205260Y-65887415D01*
X136159505Y-65834611D01*
X136148299Y-65783100D01*
X136148299Y-65638039D01*
X136148299Y-65634728D01*
X136141891Y-65575117D01*
X136091596Y-65440269D01*
X136005346Y-65325054D01*
X135890131Y-65238804D01*
X135755283Y-65188509D01*
X135695673Y-65182100D01*
X135692350Y-65182100D01*
X133903239Y-65182100D01*
X133903220Y-65182100D01*
X133899928Y-65182101D01*
X133896648Y-65182453D01*
X133896640Y-65182454D01*
X133840315Y-65188509D01*
X133705469Y-65238804D01*
X133590254Y-65325054D01*
X133504004Y-65440268D01*
X133453710Y-65575115D01*
X133453709Y-65575117D01*
X133447300Y-65634727D01*
X133447300Y-65638048D01*
X133447300Y-65638049D01*
X133447300Y-67427160D01*
X133447300Y-67427178D01*
X133447301Y-67430472D01*
X133447653Y-67433752D01*
X133447654Y-67433759D01*
X133453709Y-67490084D01*
X133463526Y-67516405D01*
X133504004Y-67624931D01*
X133590254Y-67740146D01*
X133705469Y-67826396D01*
X133817707Y-67868258D01*
X133836882Y-67875410D01*
X133892816Y-67917281D01*
X133917233Y-67982746D01*
X133902381Y-68051019D01*
X133881231Y-68079273D01*
X133759303Y-68201201D01*
X133623765Y-68394770D01*
X133523897Y-68608936D01*
X133462736Y-68837192D01*
X133442140Y-69072600D01*
X133462736Y-69308007D01*
X133498957Y-69443186D01*
X133523897Y-69536263D01*
X133623765Y-69750430D01*
X133759305Y-69944001D01*
X133926399Y-70111095D01*
X134119970Y-70246635D01*
X134334137Y-70346503D01*
X134562392Y-70407663D01*
X134797800Y-70428259D01*
X135033208Y-70407663D01*
X135261463Y-70346503D01*
X135475630Y-70246635D01*
X135669201Y-70111095D01*
X135836295Y-69944001D01*
X135971453Y-69750974D01*
X136026029Y-69707352D01*
X136073027Y-69698100D01*
X138311856Y-69698100D01*
X138332362Y-69700364D01*
X138335265Y-69700272D01*
X138335267Y-69700273D01*
X138402472Y-69698161D01*
X138406368Y-69698100D01*
X138430048Y-69698100D01*
X138433950Y-69698100D01*
X138437913Y-69697599D01*
X138449562Y-69696680D01*
X138493227Y-69695309D01*
X138512459Y-69689720D01*
X138531518Y-69685774D01*
X138537796Y-69684981D01*
X138551392Y-69683264D01*
X138592007Y-69667182D01*
X138603044Y-69663403D01*
X138644990Y-69651218D01*
X138662229Y-69641022D01*
X138679702Y-69632462D01*
X138698332Y-69625086D01*
X138733664Y-69599414D01*
X138743430Y-69593000D01*
X138781018Y-69570771D01*
X138781017Y-69570771D01*
X138781020Y-69570770D01*
X138795185Y-69556604D01*
X138809973Y-69543973D01*
X138826187Y-69532194D01*
X138854038Y-69498526D01*
X138861879Y-69489909D01*
X142170794Y-66180995D01*
X142232115Y-66147512D01*
X142301807Y-66152496D01*
X142357740Y-66194368D01*
X142382001Y-66257870D01*
X142403536Y-66504007D01*
X142448309Y-66671101D01*
X142464697Y-66732263D01*
X142564565Y-66946430D01*
X142700105Y-67140001D01*
X142867199Y-67307095D01*
X143053196Y-67437332D01*
X143096819Y-67491907D01*
X143104012Y-67561406D01*
X143072490Y-67623760D01*
X143053194Y-67640481D01*
X142977226Y-67693673D01*
X143606066Y-68322513D01*
X143596285Y-68323920D01*
X143465500Y-68383648D01*
X143356839Y-68477802D01*
X143279107Y-68598756D01*
X143255523Y-68679075D01*
X142623673Y-68047225D01*
X142623672Y-68047225D01*
X142564999Y-68131022D01*
X142465169Y-68345107D01*
X142404030Y-68573281D01*
X142383442Y-68808599D01*
X142404030Y-69043918D01*
X142465169Y-69272092D01*
X142565000Y-69486180D01*
X142623673Y-69569973D01*
X143255523Y-68938123D01*
X143279107Y-69018444D01*
X143356839Y-69139398D01*
X143465500Y-69233552D01*
X143596285Y-69293280D01*
X143606066Y-69294686D01*
X142977225Y-69923525D01*
X143053194Y-69976719D01*
X143096819Y-70031296D01*
X143104013Y-70100794D01*
X143072490Y-70163149D01*
X143053195Y-70179869D01*
X142867195Y-70310108D01*
X142700105Y-70477198D01*
X142564949Y-70670223D01*
X142510372Y-70713848D01*
X142463374Y-70723100D01*
X130537144Y-70723100D01*
X130516636Y-70720835D01*
X130446513Y-70723039D01*
X130442619Y-70723100D01*
X130415050Y-70723100D01*
X130411194Y-70723586D01*
X130411191Y-70723587D01*
X130411135Y-70723594D01*
X130411062Y-70723603D01*
X130399443Y-70724517D01*
X130355772Y-70725889D01*
X130336528Y-70731480D01*
X130317484Y-70735424D01*
X130297608Y-70737935D01*
X130257000Y-70754013D01*
X130245954Y-70757794D01*
X130204010Y-70769982D01*
X130204007Y-70769983D01*
X130186765Y-70780179D01*
X130169304Y-70788733D01*
X130150667Y-70796112D01*
X130115331Y-70821785D01*
X130105574Y-70828195D01*
X130067980Y-70850429D01*
X130053813Y-70864596D01*
X130039024Y-70877226D01*
X130022813Y-70889004D01*
X129994972Y-70922658D01*
X129987111Y-70931297D01*
X126362208Y-74556199D01*
X126346110Y-74569096D01*
X126298096Y-74620225D01*
X126295392Y-74623016D01*
X126278628Y-74639780D01*
X126278621Y-74639787D01*
X126275880Y-74642529D01*
X126273499Y-74645597D01*
X126273490Y-74645608D01*
X126273411Y-74645711D01*
X126265842Y-74654572D01*
X126235935Y-74686420D01*
X126226285Y-74703974D01*
X126215609Y-74720228D01*
X126203326Y-74736063D01*
X126185975Y-74776158D01*
X126180838Y-74786644D01*
X126159802Y-74824907D01*
X126154821Y-74844309D01*
X126148520Y-74862711D01*
X126140561Y-74881102D01*
X126133728Y-74924242D01*
X126131360Y-74935674D01*
X126120499Y-74977977D01*
X126120500Y-74998016D01*
X126118973Y-75017415D01*
X126115839Y-75037195D01*
X124104900Y-75037195D01*
X124104900Y-54531300D01*
X124124585Y-54464261D01*
X124177389Y-54418506D01*
X124228900Y-54407300D01*
X152148500Y-54407300D01*
X152215539Y-54426985D01*
G37*
%TD.AperFunction*%
M02*
