M48
; DRILL file {KiCad 7.0.2-6a45011f42~172~ubuntu20.04.1} date Sun 23 Apr 2023 02:49:37 PM EDT
; FORMAT={-:-/ absolute / metric / decimal}
; #@! TF.CreationDate,2023-04-23T14:49:37-04:00
; #@! TF.GenerationSoftware,Kicad,Pcbnew,7.0.2-6a45011f42~172~ubuntu20.04.1
; #@! TF.FileFunction,Plated,1,2,PTH
FMAT,2
METRIC
; #@! TA.AperFunction,Plated,PTH,ViaDrill
T1C0.400
; #@! TA.AperFunction,Plated,PTH,ComponentDrill
T2C1.000
%
G90
G05
T1
X148.006Y-82.753
T2
X130.124Y-58.801
X130.124Y-61.341
X130.124Y-63.881
X134.798Y-66.533
X134.798Y-69.073
X134.798Y-83.845
X134.798Y-86.385
X134.798Y-88.925
X134.798Y-91.465
X134.798Y-98.872
X134.798Y-101.412
X134.798Y-103.952
X134.874Y-75.936
X134.874Y-78.476
X143.739Y-58.649
X143.739Y-61.189
X143.739Y-63.729
X143.739Y-66.269
X143.739Y-68.809
X143.739Y-71.349
X143.739Y-73.889
X143.739Y-76.429
X143.739Y-78.969
X143.739Y-81.509
X143.739Y-84.049
X143.739Y-86.589
X143.739Y-89.129
X143.739Y-91.669
X143.739Y-94.209
X143.739Y-96.749
X143.739Y-99.289
X143.739Y-101.829
X143.739Y-104.369
X143.739Y-106.909
X146.279Y-58.649
X146.279Y-61.189
X146.279Y-63.729
X146.279Y-66.269
X146.279Y-68.809
X146.279Y-71.349
X146.279Y-73.889
X146.279Y-76.429
X146.279Y-78.969
X146.279Y-81.509
X146.279Y-84.049
X146.279Y-86.589
X146.279Y-89.129
X146.279Y-91.669
X146.279Y-94.209
X146.279Y-96.749
X146.279Y-99.289
X146.279Y-101.829
X146.279Y-104.369
X146.279Y-106.909
T0
M30
